<?xml version="1.0" encoding="UTF-8"?><svg id="Layer_1" xmlns="http://www.w3.org/2000/svg" viewBox="0 0 511.48 129.88"><defs><style>.cls-1{fill:#11a74b;}.cls-1,.cls-2{stroke-width:0px;}.cls-2{fill:#fff;}</style></defs><path class="cls-2" d="m54.11,90.04h1.49v-5.95c0-15.61-9.81-25.27-25.12-25.27-13.68,0-23.04,5.95-26.61,13.82-.45,0-.89-.3-.89-.74,0-.74,1.64-3.42,4.16-5.95,4.16-4.16,11-8.32,23.34-8.32,16.35,0,26.46,10.11,26.46,26.46v43.56c0,.15-.15.3-.45.3-.74,0-.89-.59-.89-1.93v-19.18c-2.53,12.04-14.72,21.85-31.51,21.85-13.97,0-24.08-6.54-24.08-17.84,0-14.57,12.78-20.81,54.11-20.81Zm1.49,1.04h-1.49c-40.28,0-52.77,5.95-52.77,19.77,0,10.55,9.51,16.65,22.74,16.65,17.09,0,31.51-11.3,31.51-28.1v-8.32Z"/><path class="cls-2" d="m80.42,111.15c-.74,3.27-1.34,6.54-2.08,9.81-1.19,5.35-2.82,7.28-5.65,7.28-1.49,0-2.82-.74-2.82-.89l20.66-96.92c.45-2.53,1.34-3.42,3.27-3.42h.89c1.78,0,3.42.74,2.97,3.42l-8.77,40.58c6.24-9.07,15.16-15.01,27.05-15.01,15.91,0,29.58,11,29.58,31.22,0,21.41-15.61,42.07-37.91,42.07-14.27,0-23.64-8.47-27.2-18.13Zm57.97-23.93c0-15.61-10.55-24.97-23.19-24.97s-23.19,8.47-28.39,19.18l-3.12,13.97c-2.53,13.38,6.69,27.65,24.38,27.65,18.73,0,30.33-17.84,30.33-35.82Z"/><path class="cls-2" d="m161.29,123.19V27.61c0-.45,1.78-1.19,3.87-1.19,3.42,0,6.84,1.78,6.84,9.51v87.26c0,3.87-1.93,5.05-4.76,5.05h-1.19c-2.82,0-4.76-1.19-4.76-5.05Z"/><path class="cls-2" d="m224.02,53.62c21.55,0,36.12,15.01,36.12,36.27v1.34c-.15,3.57-1.19,5.5-5.05,5.5h-50.24l.45,2.38c2.23,9.51,10.11,15.61,20.81,15.61s17.09-4.76,20.36-10.55c.15-.3,10.26.59,10.26,8.92,0,4.01-2.83,8.18-8.03,11.3-5.35,3.27-13.08,5.5-23.19,5.5-23.64,0-39.1-14.72-39.1-37.76s15.76-38.5,37.61-38.5Zm-.15,14.42c-9.96,0-17.39,7.14-18.73,17.24h35.68c-.59-10.55-6.99-17.24-16.95-17.24Z"/><path class="cls-1" d="m350.53,128.66l-3.8.35-58.55-91.7v90.5h-12.78V.52l4.14-.52,58.03,90.84V1.21h12.95v127.45Z"/><path class="cls-1" d="m430.31,13.13h-44.38v45.07h39.89v11.74h-39.89v57.85h-12.78V1.21h57.16v11.92Z"/><path class="cls-1" d="m511.48,13.13h-29.88v114.67h-12.78V13.13h-30.05V1.21h72.71v11.92Z"/></svg>