<?xml version="1.0" encoding="UTF-8"?><svg id="Layer_1" xmlns="http://www.w3.org/2000/svg" viewBox="0 0 60 60"><defs><style>.cls-1{fill:#fff;stroke-width:0px;}</style></defs><path class="cls-1" d="m42.73,5.31c-2.9-.37-5.82-.37-8.71.07-2.29.35-4.76.87-6.62,2.34-4.23,3.32-2.74,9.44-3.72,14.03-1.74.03-3.48.06-5.22.09-.14,0-.21.1-.21.21-.04.04-.06.08-.07.15-.17,3.03-.34,6.07-.51,9.1,0,.15.15.25.28.22,1.89-.4,3.78-.45,5.69-.14.05,0,.09,0,.12-.02-.47,8.42-.5,16.86-.09,25.28,0,.2.22.26.35.18.03.02.07.04.12.04.26,0,.51,0,.77,0,.02.02.04.03.06.05.12.1.28.06.35-.04,3.1.03,6.21.05,9.31.08.27,0,.28-.38.06-.44.06-.03.11-.09.11-.18,0-8.39,0-16.78,0-25.18,2.49.03,4.98.07,7.47.1.13,0,.2-.09.21-.19.07-.03.13-.09.13-.2-.03-2.89-.06-5.78-.09-8.66.18-.09.14-.42-.1-.43-2.6-.13-5.19-.27-7.79-.4-.02,0-.04,0-.05,0-.22-2.07-.39-4.47,1.15-6.09,1.58-1.65,4.47-1.64,6.57-1.46.14.01.21-.09.21-.2.12.13.4.09.39-.14-.05-2.58-.09-5.16-.14-7.74.24-.02.22-.41-.04-.45Zm-24.3,20.34c.22.38.45.75.69,1.12.36.63.68,1.29.96,1.96-.6-.82-1.11-1.69-1.53-2.63-.03-.07-.08-.1-.13-.11,0-.11.01-.23.02-.34Zm-.06,1.16c.29.67.59,1.35.88,2.02-.23-.28-.46-.57-.69-.85-.07-.09-.18-.09-.26-.04.02-.38.04-.75.06-1.13Zm-.1,1.7c.05.2.11.4.16.61-.06-.03-.13-.02-.19.02.01-.21.02-.42.03-.62Zm5.49,2.42c-1.89-.31-3.76-.28-5.63.08.01-.21.02-.43.04-.64,0,0,0,0,.02,0,.26.05.43,0,.53-.1.02.02.03.05.05.07.14.21.48.08.41-.17-.1-.37-.19-.73-.29-1.1.36.44.72.89,1.08,1.33.17.22.45-.06.35-.27-.12-.28-.25-.56-.37-.84.21.27.43.54.66.8.15.17.44,0,.38-.22-.13-.38-.27-.76-.41-1.13.34.42.69.83,1.06,1.23.15.16.44,0,.38-.22-.07-.24-.15-.48-.23-.72.23.31.45.63.68.94.14.19.51.08.41-.17,0-.02-.02-.04-.02-.05,0,0,0,0,0,0,0,0,0,0,0,0-.26-.63-.53-1.25-.83-1.86.56.82,1.12,1.63,1.69,2.45.16.24.54.02.39-.23-.41-.68-.82-1.37-1.23-2.05.68.96,1.36,1.92,2.03,2.88.17.23.52.03.39-.23-.91-1.77-1.82-3.53-2.73-5.3l3.1,4.38c.17.24.51.04.39-.23-.72-1.61-1.45-3.21-2.17-4.82.94,1.32,1.96,2.58,3.05,3.78.18.2.45-.05.35-.27-.31-.68-.63-1.37-.94-2.05.59.79,1.23,1.54,1.94,2.25.19.19.46-.05.35-.27-.52-1.09-1.03-2.19-1.55-3.28.48.69.98,1.37,1.51,2.02.17.21.45-.06.35-.27-.83-1.83-1.67-3.66-2.5-5.49,1.01,1.48,2.02,2.96,3.03,4.45.16.24.51.03.39-.23-.68-1.46-1.37-2.92-2.05-4.38.68,1.03,1.4,2.04,2.17,3.02.14.17.45-.01.38-.22-.4-1.03-.83-2.04-1.29-3.03.69,1.11,1.38,2.22,2.07,3.33-.13.02-.25.17-.18.34.29.68.62,1.34.99,1.97.43.98.79,1.99,1.07,3.03-.83-1.15-1.67-2.3-2.5-3.45-.17-.23-.52-.04-.39.23.41.84.82,1.69,1.23,2.53-.24-.39-.48-.78-.72-1.17-.15-.25-.53-.03-.39.23.76,1.34,1.38,2.72,1.89,4.16-1.13-1.24-2.11-2.6-2.93-4.08-.14-.25-.52-.03-.39.23.93,1.74,1.85,3.49,2.78,5.23-1.2-1.41-2.39-2.83-3.59-4.24-.16-.19-.51.07-.35.27,1.54,2.04,2.89,4.19,4.09,6.44-1.87-2.2-3.55-4.54-5.04-7.02-.15-.25-.53-.02-.39.23,1.09,1.9,2.18,3.8,3.28,5.7-.96-1.32-1.95-2.62-2.99-3.89-.16-.2-.48.06-.35.27,2.13,3.46,4.26,6.92,6.39,10.38-2.33-2.71-4.66-5.42-6.99-8.13-.17-.19-.49.06-.35.27,2.22,3.5,4.43,6.99,6.65,10.49l-7.2-8.1c-.17-.19-.5.06-.35.27,2.23,3.25,4.46,6.5,6.68,9.76-2.24-2.55-4.47-5.1-6.71-7.65-.17-.19-.5.07-.35.27,2.55,3.48,5.1,6.96,7.66,10.45-2.4-2.44-4.61-5.05-6.6-7.85-.16-.23-.54-.02-.39.23,1.89,3.08,3.92,6.07,6.09,8.97-2.06-2.13-4.13-4.26-6.19-6.39-.21-.21-.5.1-.32.32,2.46,3.02,4.91,6.03,7.37,9.05-2.32-2.26-4.54-4.62-6.64-7.09-.16-.19-.51.07-.35.27,2.14,2.78,4.28,5.56,6.41,8.34-2.37-2.16-4.56-4.51-6.55-7.04-.16-.2-.51.07-.35.27,1.47,1.95,2.95,3.9,4.42,5.84-.84-.85-1.67-1.71-2.51-2.56-.49-.53-.99-1.05-1.52-1.55-.21-.2-.52.11-.32.32.5.51,1.01,1.02,1.51,1.54.86.94,1.67,1.92,2.41,2.96-1.13-1.09-2.16-2.27-3.07-3.56-.16-.23-.55-.02-.39.23.84,1.32,1.67,2.64,2.51,3.96-1.12-1.03-2.13-2.17-3.01-3.43-.06-.08-.15-.11-.23-.1-.2-6.89-.11-13.78.28-20.66.01-.2-.21-.26-.35-.18-.03-.03-.06-.06-.12-.06Zm3.5,25.5c-.25-.37-.5-.73-.75-1.1.4.38.81.75,1.23,1.1-.16,0-.32,0-.48,0Zm-1.27-.01c-.17-.26-.35-.51-.52-.77.32.27.66.53,1.01.78-.16,0-.33,0-.49,0Zm-1.67-1.58c-.07-.12-.19-.13-.28-.08,0-.15-.01-.31-.02-.46.27.41.55.81.82,1.22-.19-.2-.36-.42-.52-.68Zm-.29-1.32s-.03-.03-.05-.04c-.01-.35-.02-.71-.03-1.06.75,1.08,1.49,2.17,2.24,3.25-.8-.62-1.52-1.33-2.16-2.15Zm4.32,2.87c-.46-.73-.93-1.46-1.39-2.19.7.74,1.43,1.44,2.21,2.09.18.15.5-.04.35-.27-.25-.39-.51-.76-.77-1.14.52.53,1.04,1.06,1.56,1.59-.65,0-1.3-.01-1.95-.02,0-.02-.01-.04-.02-.06Zm2.62.08c-.91-1.2-1.81-2.4-2.72-3.59,1.23,1.26,2.51,2.46,3.85,3.6-.38,0-.75,0-1.13-.01Zm1.82.02l-4.33-5.62c1.71,1.8,3.48,3.54,5.32,5.21.22.2.5-.1.32-.32l-6.21-7.63c1.78,1.83,3.55,3.67,5.33,5.5.21.21.49-.1.32-.32-1.97-2.47-3.83-5.02-5.6-7.63,1.67,1.98,3.46,3.87,5.36,5.64.18.17.51-.06.35-.27-2.08-2.83-4.16-5.67-6.23-8.5,1.94,2.21,3.87,4.41,5.81,6.62.17.19.5-.06.35-.27-2.26-3.3-4.53-6.61-6.79-9.91,2.23,2.51,4.45,5.01,6.68,7.52.17.19.49-.06.35-.27-2.16-3.41-4.33-6.82-6.49-10.24,2.27,2.64,4.55,5.29,6.82,7.93.06.07.13.08.2.06,0,4.12,0,8.23,0,12.35,0,.08.03.13.08.17-.55,0-1.09,0-1.64-.01Zm1.99-25.78c-.09,0-.15.04-.18.1-.12-.01-.25.06-.25.21,0,4.13,0,8.26,0,12.39-1.84-2.99-3.67-5.97-5.51-8.96,1.3,1.77,2.55,3.57,3.72,5.44.15.24.53.03.39-.23-1.09-1.9-2.18-3.79-3.27-5.69.92,1.21,1.9,2.38,2.93,3.51.18.2.46-.05.35-.27-.75-1.54-1.58-3.03-2.47-4.48.71.84,1.41,1.67,2.12,2.51.17.2.47-.06.35-.27-.62-1.17-1.24-2.34-1.86-3.51.45.54.91,1.08,1.42,1.58.16.16.44,0,.38-.22-.17-.56-.37-1.11-.58-1.66l.98,1.58c.15.25.51.03.39-.23-.68-1.41-1.37-2.82-2.05-4.23l1.69,2.32c.15.2.47.09.41-.17-.17-.8-.39-1.58-.64-2.35.37.49.77.96,1.2,1.41.16.17.42,0,.38-.22-.28-1.36-.67-2.68-1.17-3.96.7,1.01,1.4,2.02,2.09,3.02.14.2.47.08.41-.17-.19-.76-.42-1.51-.69-2.24.58.9,1.15,1.8,1.73,2.7.13.2.51.07.41-.17-.31-.76-.62-1.52-.93-2.28.49.71,1.02,1.39,1.61,2.04.14.16.46,0,.38-.22-.3-.73-.59-1.46-.89-2.18.69.98,1.44,1.92,2.26,2.81.15.16.44,0,.38-.22-.35-1.1-.7-2.21-1.05-3.31.62,1,1.23,1.99,1.85,2.99.11.18.44.12.42-.11-.06-.74-.18-1.47-.33-2.19.28.61.56,1.21.83,1.82.03.07.09.1.16.11.01,1.03.02,2.07.03,3.1-2.46-.03-4.92-.07-7.38-.1Zm7.52-17.32c-2.22-.19-5.23-.15-6.89,1.59-1.71,1.79-1.5,4.45-1.25,6.72.03.23.33.27.42.12.02,0,.03.01.05.01,2.48.13,4.96.25,7.45.38l.04,4.17c-.22-.87-.45-1.74-.67-2.62-.06-.25-.44-.19-.44.06,0,.2,0,.39,0,.59-.22-.49-.45-.97-.67-1.46-.11-.23-.5-.07-.41.17.47,1.26.79,2.55.98,3.87-.76-1.22-1.51-2.44-2.27-3.67-.13-.21-.49-.08-.41.17.43,1.34.85,2.68,1.28,4.02-1.06-1.24-2-2.56-2.81-3.99-.12-.21-.51-.07-.41.17.42,1.04.84,2.08,1.26,3.12-.97-1.25-1.78-2.61-2.42-4.07-.1-.23-.51-.06-.41.17.47,1.14.93,2.28,1.4,3.42-.82-1.28-1.65-2.57-2.47-3.85-.16-.24-.54-.02-.39.23.83,1.36,1.48,2.78,1.95,4.28-.9-1.3-1.8-2.59-2.69-3.89-.16-.24-.52-.03-.39.23.85,1.68,1.49,3.41,1.92,5.23-.63-.73-1.19-1.51-1.68-2.33-.27-.6-.56-1.19-.88-1.77.15,0,.29-.16.2-.33l-3.62-7.28c1.21,1.89,2.42,3.78,3.62,5.67.16.24.52.03.39-.23-1.2-2.32-2.4-4.64-3.61-6.96,1.44,2.04,2.88,4.09,4.32,6.13.16.23.53.03.39-.23l-3.64-6.76c.96,1.41,1.92,2.81,2.88,4.22.16.24.52.03.39-.23-.98-2.01-1.96-4.03-2.95-6.04.76,1.17,1.52,2.34,2.28,3.51.14.21.48.08.41-.17-.3-1.15-.69-2.26-1.16-3.34.49.7.97,1.41,1.46,2.11.17.24.5.04.39-.23-.31-.73-.63-1.46-.94-2.19.4.59.82,1.16,1.27,1.72.15.19.42-.02.38-.22-.13-.64-.29-1.26-.47-1.88.2.32.4.64.61.95.15.21.46.08.41-.17-.1-.53-.23-1.05-.37-1.57.25.48.51.97.76,1.45.12.24.46.07.41-.17-.14-.66-.28-1.32-.42-1.99.21.53.42,1.06.62,1.58.11.27.47.17.43-.12-.14-.97-.27-1.95-.41-2.92.3.92.61,1.83.91,2.75.08.23.44.2.44-.06,0-.82-.08-1.62-.2-2.41.43,1.01.87,2.01,1.3,3.02.09.2.44.1.42-.11-.05-.71-.15-1.41-.29-2.1.31.54.65,1.08,1.02,1.59.14.19.52.08.41-.17-.24-.58-.49-1.16-.73-1.75.47.71.94,1.42,1.42,2.12.14.2.48.08.41-.17-.25-.87-.49-1.73-.74-2.6.54,1.03,1.09,2.07,1.63,3.1.12.22.5.07.41-.17-.15-.42-.3-.84-.44-1.26.06.13.12.26.18.38.11.24.46.06.41-.17-.18-.81-.37-1.63-.55-2.44l.08.12c.15.24.54.02.39-.23-.26-.41-.52-.82-.78-1.23-.14-.22-.47-.08-.41.17.13.57.26,1.14.39,1.71l-1.17-2.48c-.11-.23-.5-.07-.41.17.29.83.58,1.65.87,2.48-.4-.77-.81-1.53-1.21-2.3-.12-.23-.48-.07-.41.17.31,1.1.63,2.2.94,3.3l-1.92-2.87c-.13-.2-.51-.08-.41.17.14.32.27.64.41.97-.16-.33-.31-.66-.45-1-.1-.28-.21-.56-.32-.84,0-.02-.02-.04-.02-.06,0,0,0,0,0,0,0-.02-.01-.04-.02-.05-.1-.23-.49-.07-.41.17.13.37.27.74.43,1.1.3.86.52,1.73.68,2.62l-1.72-3.99c-.1-.23-.49-.07-.41.17.33,1.01.55,2.04.68,3.08-.37-1.13-.75-2.25-1.12-3.38-.09-.28-.47-.16-.43.12.16,1.16.33,2.33.49,3.49-.3-.77-.61-1.55-.91-2.32-.1-.27-.49-.17-.43.12.21,1,.42,2.01.64,3.01-.49-.94-.98-1.88-1.47-2.82-.14-.26-.5-.03-.39.23.47,1.05.84,2.13,1.12,3.24-.42-.69-.8-1.41-1.15-2.14-.21-.54-.44-1.07-.7-1.59-.11-.23-.5-.07-.41.17,0,.02.02.04.02.05,0,0,0,0,0,0,.21.52.43,1.04.67,1.54.43,1.07.77,2.17,1.05,3.3-.95-1.27-1.77-2.61-2.45-4.04-.13-.26-.5-.03-.39.23.51,1.18,1.02,2.37,1.53,3.55-.88-1.28-1.76-2.55-2.65-3.83-.16-.24-.55-.01-.39.23,1.17,1.72,2.08,3.57,2.74,5.52-1.14-1.75-2.28-3.5-3.41-5.25-.16-.24-.51-.03-.39.23l3.2,6.55c-1.18-1.73-2.36-3.46-3.54-5.19-.16-.24-.53-.03-.39.23,1.3,2.41,2.59,4.82,3.89,7.24-1.36-1.93-2.72-3.86-4.07-5.78-.17-.23-.52-.03-.39.23.95,1.83,1.9,3.66,2.85,5.49-1.07-1.67-2.13-3.33-3.2-5-.16-.25-.52-.03-.39.23,1.13,2.27,2.25,4.54,3.38,6.81-1.23-1.97-2.45-3.94-3.68-5.92-.15-.24-.54-.02-.39.23,1.59,2.51,2.97,5.14,4.13,7.87-1.44-1.99-2.71-4.09-3.8-6.3-.13-.26-.51-.03-.39.23,1.07,2.27,2.13,4.54,3.19,6.81-.97-1.43-1.94-2.85-2.92-4.28-.16-.24-.51-.03-.39.23.92,2.02,1.84,4.03,2.75,6.05-.92-1.28-1.75-2.62-2.47-4.03-.13-.26-.51-.03-.39.23.92,1.94,1.84,3.89,2.75,5.84-1.14-1.31-2.09-2.76-2.86-4.33-.13-.26-.51-.03-.39.23.63,1.36,1.25,2.73,1.88,4.09-1.26-1.49-2.41-3.06-3.45-4.72-.16-.25-.5-.03-.39.23.77,1.7,1.53,3.41,2.3,5.11-1.21-1.7-2.41-3.4-3.62-5.11-.17-.23-.52-.03-.39.23.9,1.75,1.81,3.5,2.71,5.25-1.2-1.71-2.41-3.42-3.61-5.13-.16-.23-.54-.03-.39.23.22.38.45.75.67,1.13-.23-.33-.46-.66-.68-.99-.16-.24-.55-.01-.39.23.97,1.43,1.82,2.92,2.56,4.46-.23-.33-.47-.65-.7-.98-.53-.97-1.18-1.87-1.95-2.7-.17-.18-.5.06-.35.27.64.89,1.28,1.78,1.93,2.68.28.5.52,1.03.73,1.57-.61-.73-1.18-1.49-1.7-2.29-.23-.41-.48-.82-.74-1.21-.08-.12-.21-.13-.3-.07.06-.99.11-1.98.17-2.97,1.69-.03,3.39-.06,5.08-.08.1,0,.16-.06.19-.13.09,0,.18-.04.21-.16.95-4.38-.51-10.38,3.34-13.65,1.94-1.65,4.65-2.17,7.1-2.5,2.59-.35,5.19-.35,7.78-.05.05,2.59.09,5.17.14,7.76-.04-.04-.09-.08-.16-.08Z"/></svg>