<?xml version="1.0" encoding="UTF-8"?><svg id="Layer_1" xmlns="http://www.w3.org/2000/svg" viewBox="0 0 60 60"><defs><style>.cls-1{fill:#1e0e00;stroke:#fff;stroke-miterlimit:10;}</style></defs><path class="cls-1" d="m50.11,15.09c-.75-1.74-2.09-3.15-3.69-4.15-2.98-1.87-6.42-2.19-9.86-2.05-.03-.05-.08-.08-.16-.08-2.13.2-4.26.29-6.4.3-2.13,0-4.27-.1-6.4-.3-.08,0-.13.03-.16.08-3.43-.13-6.88.19-9.86,2.05-1.6,1-2.94,2.4-3.69,4.15-.99,2.29-.93,4.86-.92,7.3.02,5.63.05,11.27.07,16.9,0,2.42-.33,5.23.67,7.51.72,1.63,2.17,2.78,3.8,3.44,2.61,1.05,5.61.94,8.36.93.88,0,1.76-.02,2.64-.05.03.04.08.07.16.06,1.69-.15,3.38-.24,5.07-.26.09,0,.18,0,.27,0,.09,0,.18,0,.27,0,1.69.02,3.38.11,5.07.26.07,0,.13-.02.16-.06.88.03,1.76.05,2.64.05,2.76,0,5.76.13,8.36-.93,1.62-.66,3.08-1.8,3.8-3.44,1-2.28.66-5.09.67-7.51.02-5.63.05-11.27.07-16.9,0-2.45.06-5.01-.92-7.3Zm-37.53-2.9c3.21-2.73,7.39-3.07,11.46-2.85,0-.02,0-.05,0-.07.26.02.51.03.77.05,0,.01,0,.02,0,.04.7,2.21,1.41,4.41,2.11,6.62-.25-.6-.51-1.2-.76-1.81-.35-.95-.74-1.88-1.18-2.8-.1-.21-.47-.06-.38.16.39.92.78,1.85,1.17,2.77.56,1.5,1.02,3.04,1.38,4.6-1.19-2.59-2.39-5.18-3.58-7.77-.1-.22-.45-.06-.38.16.73,2.46,1.45,4.91,2.18,7.37-1.32-2.53-2.63-5.05-3.95-7.58-.11-.21-.46-.06-.38.16.95,2.77,1.9,5.54,2.85,8.32-1.52-3.06-3.05-6.12-4.57-9.19-.1-.21-.46-.06-.38.16.86,2.36,1.71,4.71,2.57,7.07-.95-2.07-1.89-4.15-2.84-6.22-.1-.21-.46-.06-.38.16.98,2.89,1.96,5.77,2.95,8.66-1.46-3.05-2.93-6.09-4.39-9.14-.11-.22-.43-.06-.38.16.47,2.11,1.06,4.2,1.75,6.24-.87-1.85-1.73-3.71-2.6-5.56-.1-.22-.44-.06-.38.16.66,2.51,1.43,4.99,2.32,7.43-1.01-2.1-2.02-4.19-3.03-6.29-.1-.21-.46-.06-.38.16,1.11,3.03,2.22,6.05,3.33,9.08-1.3-2.71-2.6-5.42-3.89-8.13-.1-.21-.46-.06-.38.16.73,2,1.46,3.99,2.19,5.99l-3.12-6.56c-.1-.21-.46-.06-.38.16.84,2.47,1.67,4.94,2.51,7.42-1.05-2.12-2.1-4.24-3.15-6.36-.11-.22-.44-.06-.38.16.73,2.89,1.64,5.72,2.72,8.5-.7-.88-1.32-1.81-1.85-2.78-.53-1.27-1.07-2.53-1.6-3.8-.09-.22-.45-.06-.38.16.11.34.22.69.34,1.02-.06-.11-.11-.22-.17-.33-.08-.16-.26-.12-.34,0,.34-2.22,1.14-4.28,3-5.87Zm8.23,17.34c-.49-1.18-.95-2.37-1.37-3.57-.05-.13-.18-.17-.28-.13-1.05-2.87-2.11-5.74-3.16-8.61,1.23,2.55,2.46,5.09,3.68,7.64-.14-.06-.33.07-.29.25.39,1.5.88,2.97,1.41,4.42Zm2.41,3.79c.1.21.47.06.38-.16-.75-1.8-1.39-3.63-1.91-5.5.38.95.76,1.9,1.15,2.86.1.25.46.16.4-.11l-.91-4.43c.32.81.64,1.63.96,2.44-.09.94-.06,1.89.05,2.72.42,2.95,2.57,5.85,5.77,5.91.8.01,1.58-.14,2.32-.42-.01.05,0,.09.02.14.48.86.79,1.75.98,2.7-.45-.28-.84-.62-1.19-1-.2-.47-.5-.9-.9-1.28-.17-.17-.44.04-.33.25.24.47.54.88.87,1.26.08.19.14.38.18.59-.56-.64-1.11-1.27-1.67-1.91-.18-.2-.47.09-.3.29.7.8,1.4,1.6,2.1,2.41.12.14.36.03.36-.15,0-.22-.04-.44-.07-.64.31.26.65.5,1.02.7-.87.2-1.77.31-2.68.31-3.6,0-7.02-1.65-9.11-4.59-1.27-1.78-2.01-3.89-2.16-6.05.74,2.38,1.82,4.61,3.25,6.66.15.22.49.03.36-.21-.56-1.01-1.07-2.04-1.53-3.09.8,1.31,1.6,2.62,2.39,3.94.14.23.48.03.36-.21-.95-1.92-1.77-3.9-2.48-5.91,1.02,2.37,2.17,4.69,3.44,6.95.13.24.47.03.36-.21-1.48-3.21-2.94-6.43-4.06-9.77.86,1.84,1.72,3.69,2.58,5.53Zm-2.49-6.34c.1.1.28.03.33-.1.17.68.36,1.35.57,2.02-.3-.64-.6-1.28-.89-1.92Zm3.03,1.47c-.02-.06-.05-.12-.07-.17.17-1.45.67-2.83,1.58-3.8.07.07.19.09.28,0,2.52-2.55,6.77-2.29,9.03.46,2.37,2.9,1.88,7.05-.73,9.61-1.31,1.29-3.18,2.23-5.06,2.06-1.84-.16-3.39-1.44-4.24-3.03-.69-1.29-1.02-3.12-.89-4.9.09-.03.15-.12.1-.23Zm8.78,8.18c.28.57.51,1.14.7,1.74-.48-.62-.97-1.24-1.45-1.86,0-.01-.02-.02-.03-.02.47-.21.92-.47,1.34-.77,0,.01,0,.03,0,.04.12.27.25.53.38.78.23.53.4,1.07.51,1.64-.37-.58-.74-1.16-1.11-1.75-.14-.23-.48-.03-.36.21Zm4.38,1.09c-.18-.4-.36-.81-.54-1.21.31.33.66.64,1.04.93-.16.14-.32.28-.49.42,0-.04,0-.09-.02-.13Zm2.98-2.66c1.59-2.7,2.1-5.94,1.37-8.98,1.71-.02,3.42-.04,5.13-.06-.02,4.59-.04,9.17-.06,13.76,0,2.07.26,4.8-1.97,5.88-.08.04-.16.07-.24.1-.01-.02-.02-.03-.03-.05-.13-.19-.44-.08-.38.16,0,.01,0,.03.01.04-1.7.54-3.77.28-5.48.26-4.67-.04-9.33-.08-14-.12l-7.2-.06c-1.07,0-2.43.11-3.14-.85-.7-.94-.46-2.53-.46-3.63l.04-15.58c1.65.05,3.29.09,4.94.14-1.29,5.39,1.42,11.41,6.58,13.66,5.37,2.33,11.89.42,14.88-4.66Zm.11-14.48c.34,1.19.68,2.37,1.02,3.56-.72-1.11-1.3-2.3-1.73-3.56.24,0,.47,0,.71,0Zm-.75-.42c-.05-1.81,0-3.62.17-5.43.01,0,.02,0,.04,0,2.09-.02,4.17-.11,6.26-.25-.12,1.89-.25,3.77-.37,5.66-2.03,0-4.06,0-6.09.01Zm2.14,5.22c.13.18.45.09.38-.16l-.46-1.59c.35.66.74,1.29,1.18,1.91.11.16.4.12.39-.11-.02-.45-.07-.88-.14-1.31.2.31.41.61.63.91.11.14.41.13.39-.11-.04-.49-.11-.96-.2-1.43.28.51.58,1.01.91,1.49.1.15.41.12.39-.11-.04-.41-.1-.81-.17-1.22.2.35.41.69.65,1.02.12.16.38.11.39-.11.01-.33,0-.66,0-.99.31.73.71,1.43,1.19,2.1.14.19.42.08.38-.16l-.41-2.31c.42,1.02.9,2.01,1.47,2.97.12.2.44.07.38-.16-.47-1.8-.94-3.61-1.41-5.41.54,1.38,1.07,2.76,1.61,4.13,0,.02,0,.03,0,.05,0,1.4.12,2.79.33,4.17-.25-.63-.49-1.26-.74-1.9-.1-.25-.46-.16-.4.11l1.16,5.52c-.46-1.25-.93-2.5-1.39-3.75-.09-.25-.46-.15-.4.11.56,2.54,1.12,5.09,1.68,7.63l-1.68-4.15c-.1-.24-.48-.16-.4.11.55,2.02,1.11,4.04,1.66,6.06-.5-1.02-1.08-2-1.74-2.94-.05-.07-.14-.1-.22-.09,0-.31,0-.61,0-.92.01-3.04.02-6.09.04-9.13,0-.24-.34-.26-.4-.07-1.73.02-3.45.04-5.18.06-.08,0-.14.04-.17.1-.03,0-.05,0-.08,0-.21-.64-.42-1.28-.63-1.92.32.53.66,1.04,1.04,1.54Zm3.87,20.19c.28.87.44,1.73.49,2.63-.47-.72-.94-1.43-1.42-2.15.33-.15.64-.32.92-.54,0,.02,0,.04,0,.07Zm-6.85,3.86c-.78-.82-1.34-1.77-1.67-2.87h.49c.17,0,.35,0,.54.02,0,.03-.01.07,0,.11.22.91.43,1.83.65,2.74Zm-4.65-2.9h.85s0,.03,0,.04c.27.73.46,1.46.56,2.22-.47-.75-.94-1.5-1.41-2.25Zm.27,3.02c-.81-.92-1.5-1.93-2.05-3.03h1.31s0,.03,0,.04c.36.98.61,1.97.74,3Zm1.03-3.01h1.22c.16.93.31,1.84.47,2.76-.69-.84-1.25-1.76-1.69-2.76Zm-16.23-20.33c.06.12.11.23.17.35.04.09.12.11.2.1.64,2.44,1.45,4.83,2.42,7.15-.63-1.04-1.26-2.08-1.9-3.12-.16-.45-.32-.9-.47-1.35-.06-.2-.31-.18-.39-.04-.09-.1-.25-.08-.33.02-.04-1.04.05-2.08.29-3.11Zm-9.43-.95c0-.26,0-.53,0-.8.95,1.98,1.78,4.01,2.47,6.09l-1.67-3.39c-.1-.21-.46-.06-.38.16l2.16,6.07c-.72-1.28-1.33-2.61-1.81-4.01-.09-.25-.49-.14-.4.11.74,2.16,1.48,4.32,2.23,6.47-.82-1.29-1.47-2.68-1.94-4.16-.08-.26-.47-.15-.4.11.48,1.86,1.07,3.67,1.76,5.45-.54-.89-1.08-1.78-1.61-2.67-.08-.13-.27-.11-.35-.02-.01-3.14-.03-6.28-.04-9.42Zm1.61,13.73c-.4-.74-.79-1.49-1.19-2.23-.08-.16-.31-.11-.38.02,0-.62,0-1.23,0-1.85.53,1.35,1.05,2.7,1.58,4.06Zm-1.56.18c.32,1.17.69,2.32,1.1,3.46-.24-.47-.48-.94-.73-1.41-.08-.16-.32-.11-.38.03,0-.32,0-.64,0-.95,0-.38,0-.76,0-1.13Zm0-.73c0-.5,0-1,0-1.5.5,1.39,1,2.77,1.5,4.16l-1.25-2.57c-.05-.11-.16-.12-.25-.09Zm0,2.95l1.72,4.68c-.48-.87-.96-1.74-1.45-2.61-.06-.11-.18-.12-.27-.07-.03-.67-.02-1.34,0-1.99Zm22.01,9.13s0-.02,0-.03c-.4,0-.8,0-1.2,0-.09,0-.17,0-.26,0-.09,0-.17,0-.26,0-.4,0-.8,0-1.2,0,0,0,0,.02,0,.03-1.3.04-2.59.11-3.89.23-.02,0-.03,0-.05.01-2.64.11-5.29.09-7.87-.2-2.31-.26-4.81-1.07-6.18-3.08-.72-1.06-.99-2.31-1.08-3.6.88,1.59,1.76,3.18,2.64,4.76.11.2.46.07.38-.16-.5-1.36-1-2.72-1.5-4.08.58,1.12,1.15,2.24,1.73,3.36.08.15.24.12.32.03.39.66.77,1.32,1.16,1.99.11.19.37.09.39-.11.01-.17.02-.34.01-.5.2.26.41.52.65.76.12.12.38.04.36-.15-.02-.23-.05-.47-.09-.7.19.29.39.56.62.83.13.15.34.02.36-.15.04-.39.03-.76,0-1.13.36.52.78.99,1.27,1.42.16.14.39,0,.35-.2-.09-.45-.19-.9-.28-1.34.29.52.62,1.02.98,1.5.14.19.43.08.38-.16l-.19-.89c.25.44.52.87.85,1.28.14.18.38-.02.35-.2-.06-.34-.13-.69-.19-1.03.18.43.37.86.55,1.29.1.25.46.03.36-.21-.43-1.01-.86-2.01-1.29-3.02-.1-.23-.42-.06-.38.16l.37,1.98c-.47-.73-.82-1.52-1.07-2.37-.08-.26-.46-.15-.4.11.14.66.28,1.32.42,1.97-.41-.65-.78-1.33-1.08-2.06-.1-.24-.46-.16-.4.11.16.77.32,1.54.48,2.31-.58-.61-1.04-1.29-1.39-2.06-.07-.19-.15-.38-.24-.57-.1-.21-.46-.06-.38.16.07.19.15.38.24.57.21.59.32,1.19.32,1.81-.5-.67-.87-1.39-1.11-2.22-.09-.25-.48-.15-.4.11.24.68.41,1.36.52,2.06-.24-.3-.45-.61-.63-.94-.11-.42-.28-.83-.52-1.23-.12-.2-.45-.07-.38.16.13.43.3.82.5,1.2.05.19.08.37.09.57-.42-.73-.85-1.45-1.27-2.18-.06-.1-.17-.12-.25-.08-.86-1.84-1.61-3.72-2.23-5.64.63,1.29,1.25,2.58,1.88,3.87.1.21.46.06.38-.16l-1.88-5.19c.49.91.97,1.82,1.46,2.73.11.2.47.06.38-.16-.66-1.7-1.32-3.41-1.98-5.11.6.99,1.2,1.99,1.8,2.98.14.23.47.03.36-.21-.66-1.47-1.24-2.97-1.76-4.5.42.75.89,1.48,1.41,2.18.13.17.47.08.38-.16-.42-1.21-.83-2.42-1.25-3.64.32.56.65,1.1,1.02,1.64.12.18.47.08.38-.16-.54-1.52-1.08-3.03-1.62-4.55.41.84.83,1.68,1.24,2.52.11.21.44.06.38-.16-.29-1.04-.62-2.07-.97-3.08.07.14.13.27.2.41.1.21.46.06.38-.16-.58-1.73-1.16-3.46-1.75-5.2.34.67.69,1.34,1.03,2.01.11.21.46.06.38-.16-.24-.68-.48-1.36-.72-2.04.3.57.6,1.14.9,1.71.13.24.49.03.36-.21-.74-1.4-1.48-2.81-2.23-4.21-.11-.21-.46-.06-.38.16.21.59.42,1.18.62,1.77-.29-.57-.59-1.15-.88-1.72-.11-.21-.46-.06-.38.16.56,1.65,1.11,3.3,1.67,4.96-.53-1.07-1.06-2.13-1.59-3.2-.07-.13-.2-.13-.29-.05-.04-1.92-.1-3.92.17-5.82,0,.01,0,.02,0,.03,1.11,2.19,2.23,4.38,3.34,6.57.12.24.46.03.36-.21-.18-.43-.36-.86-.55-1.3.42.58.87,1.14,1.36,1.68.13.15.43,0,.35-.2-1.01-2.48-1.87-5.01-2.6-7.59,1.2,2.41,2.39,4.83,3.59,7.24.1.21.46.06.38-.16-.79-2.35-1.59-4.69-2.38-7.04,1.17,2.46,2.35,4.92,3.52,7.39.1.21.46.06.38-.16-.74-2.03-1.48-4.05-2.22-6.08,1.16,2.41,2.31,4.83,3.47,7.24-1.71-.05-3.42-.1-5.14-.14-.12-.09-.34-.04-.34.16-.01,5.35-.02,10.7-.04,16.04,0,1.56-.27,3.72,1.51,4.43.84.33,1.83.26,2.71.26l4.12.04,10.17.09s0,.05,0,.08c.34,1.09.51,2.19.54,3.31-.89-.99-1.67-2.06-2.33-3.22-.13-.24-.48-.03-.36.21.38.76.58,1.53.66,2.35-.73-.73-1.27-1.57-1.63-2.56-.09-.25-.49-.14-.4.11.45,1.23,1.14,2.26,2.13,3.11.13.11.36.04.36-.15,0-.47-.07-.93-.16-1.37.53.76,1.12,1.49,1.76,2.17-.22,0-.44-.02-.66-.03Zm19.15-25.26c-.02,5.02-.04,10.03-.06,15.05,0,2.35.29,5.12-1.1,7.17-1.37,2.02-3.87,2.82-6.18,3.08-2.58.29-5.23.31-7.87.2-.02,0-.03-.01-.05-.01-.95-.08-1.91-.14-2.86-.18.02-.03.03-.07.04-.1.02-.86-.06-1.7-.21-2.52.54.86,1.15,1.66,1.86,2.4.12.12.37.04.36-.15-.06-.77-.19-1.51-.37-2.24.38.6.76,1.21,1.13,1.81.1.17.4.11.39-.11-.02-.46-.08-.91-.16-1.35.41.66.88,1.29,1.42,1.88.15.17.38-.01.35-.2-.1-.59-.2-1.17-.3-1.76.42.75.97,1.43,1.65,2.02.16.13.4,0,.35-.2-.11-.48-.23-.96-.34-1.44.34.57.73,1.1,1.18,1.61.12.13.36.03.36-.15-.02-.52-.07-1.03-.16-1.53l.9,1.53c.12.21.43.07.38-.16l-.29-1.39c.32.56.65,1.12.97,1.68.13.23.49.02.36-.21l-1.63-2.82c-.12-.21-.43-.07-.38.16.1.47.2.95.3,1.42-.35-.6-.7-1.19-1.05-1.79-.12-.2-.46-.07-.38.16.28.76.45,1.51.52,2.3-.67-.85-1.18-1.77-1.54-2.8,1.8.07,3.96.2,5.65-.35.24.95.49,1.89.73,2.84-.58-.64-1-1.38-1.25-2.23-.08-.25-.48-.15-.4.11.24.72.38,1.43.42,2.16-.43-.74-.85-1.48-1.28-2.22-.13-.23-.49-.02-.36.21l1.68,2.92c.11.18.38.1.39-.11.01-.43-.01-.85-.06-1.27.3.45.67.87,1.1,1.24.15.13.4,0,.35-.2-.23-.91-.47-1.82-.7-2.74.46.69.91,1.38,1.37,2.08.11.17.39.11.39-.11,0-.64-.05-1.26-.15-1.87.34.56.72,1.09,1.14,1.6.12.15.35.02.36-.15.01-.54-.02-1.06-.09-1.58.24.4.51.79.81,1.17.11.14.37.03.36-.15-.07-.78-.18-1.55-.35-2.31.11.2.22.4.33.59.08.14.35.14.38-.05.07-.48.05-.85-.11-1.31-.09-.25-.49-.14-.4.11.05.12.09.24.11.36-.47-.86-.88-1.75-1.22-2.68-.1-.24-.5-.14-.4.11.58,1.43.97,2.9,1.16,4.43-.42-.61-.77-1.26-1.05-1.96-.08-.25-.17-.5-.27-.75-.1-.24-.48-.15-.4.11.08.25.17.48.26.72.27.84.42,1.69.46,2.57-.59-.77-1.08-1.6-1.48-2.49-.03-.07-.1-.1-.16-.1.57-.54.98-1.28,1.15-2.3.2-1.2.12-2.45.13-3.66v-2.89c.66,2.08,1.31,4.15,1.96,6.23-.49-1.1-.94-2.22-1.33-3.36-.09-.25-.49-.14-.4.11.71,2.05,1.57,4.04,2.59,5.96.11.21.45.07.38-.16-.83-2.65-1.66-5.31-2.5-7.96,1.03,1.7,1.82,3.51,2.36,5.43.07.26.47.15.4-.11-.61-2.21-1.21-4.42-1.82-6.63.43,1.05.85,2.11,1.28,3.16.1.24.46.16.4-.11-.52-2.37-1.05-4.74-1.57-7.11.44,1.18.88,2.37,1.32,3.55.09.25.46.15.4-.11-.4-1.93-.81-3.85-1.21-5.78.21.53.41,1.07.62,1.6.1.25.46.16.4-.11-.33-1.41-.53-2.83-.64-4.26.08.3.16.61.23.91.07.26.47.15.4-.11-.22-.88-.45-1.76-.67-2.64.02-.04.03-.09.01-.15-.49-1.91-.99-3.82-1.48-5.73l1.49,4.15c.09.25.47.15.4-.11l-1.92-7.44c.84,1.57,1.41,3.26,1.71,5.03.05.27.44.15.4-.11-.18-1.31-.43-2.61-.73-3.9.29.79.49,1.62.58,2.49.03.26.45.27.42,0-.18-1.64-.68-3.14-1.53-4.55-.12-.2-.45-.07-.38.16.18.63.34,1.27.48,1.9-.38-.88-.83-1.72-1.36-2.53-.13-.2-.44-.07-.38.16.38,1.48.77,2.96,1.15,4.44-.5-1.4-1-2.79-1.5-4.19-.09-.25-.47-.15-.4.11.59,2.26,1.17,4.52,1.76,6.78-.57-1.45-1.13-2.91-1.7-4.36-.1-.24-.47-.15-.4.11.62,2.39,1.25,4.79,1.87,7.18-.62-1.27-1.12-2.58-1.49-3.95-.07-.26-.45-.15-.4.11.24,1.34.48,2.67.71,4.01-.65-1.11-1.09-2.31-1.32-3.61-.06-.26-.45-.15-.4.11.21.92.31,1.84.33,2.78-.59-.93-1.03-1.93-1.31-3.01-.08-.25-.47-.15-.4.11.32.98.57,1.98.73,3-.6-.99-1.12-2.01-1.54-3.1,0,0,0,0,0,0,0-.02-.01-.03-.02-.05-.09-.22-.47-.06-.38.16,0,.02.01.03.02.05.42,1,.7,2.02.85,3.08-.32-.49-.61-.99-.87-1.51-.19-.62-.44-1.23-.74-1.82-.11-.21-.45-.06-.38.16.2.64.46,1.24.74,1.83.18.6.31,1.21.39,1.83-.81-1.27-1.46-2.6-1.94-4.04h4.91c.09.13.37.09.39-.13.13-2.01.26-4.01.4-6.02.14-.11.11-.39-.11-.37-2.19.15-4.38.24-6.57.27-.12,0-.19.09-.2.19-.11-.01-.24.05-.25.2-.17,1.78-.22,3.57-.17,5.36-.07.04-.11.12-.08.22.56,1.72,1.13,3.44,1.69,5.17-.84-1.2-1.45-2.51-1.85-3.95-.07-.26-.47-.15-.4.11.53,1.89,1.43,3.59,2.69,5.09.03.04.07.06.11.06.56,3.06-.15,6.27-1.94,8.83-.39.56-.84,1.08-1.32,1.55-.18-.63-.4-1.24-.64-1.85.32.37.66.74,1.03,1.07.14.13.42,0,.35-.2-.25-.74-.49-1.48-.74-2.22.26.38.53.75.84,1.1.11.13.38.03.36-.15-.14-1.05-.39-2.06-.74-3.04.34.5.67.99,1.01,1.49.1.15.41.12.39-.11-.1-.92-.29-1.81-.56-2.68.28.32.58.63.89.93.14.13.42,0,.35-.2-.58-1.59-1.17-3.18-1.75-4.77.55,1.02,1.11,2.04,1.66,3.06.13.24.49.03.36-.21-1.01-1.86-2.01-3.71-3.02-5.57-.11-.2-.46-.06-.38.16.8,2.18,1.6,4.37,2.4,6.55-.35-.38-.68-.79-.97-1.21-.33-.8-.74-1.58-1.23-2.32-.12-.19-.47-.07-.38.16,0,.02.01.03.02.05h0s0,0,0,0c.33.82.73,1.59,1.22,2.3.39.93.67,1.89.85,2.89l-1.87-2.76c-.15-.22-.49-.03-.36.21.77,1.37,1.3,2.82,1.58,4.34-.58-.76-1.05-1.59-1.42-2.49-.1-.24-.49-.15-.4.11.41,1.22.81,2.45,1.22,3.67-.72-.77-1.34-1.61-1.86-2.54-.13-.23-.49-.03-.36.21.65,1.13,1.17,2.31,1.57,3.54-.81-.72-1.43-1.59-1.86-2.6-.11-.25-.46-.03-.36.21l1.06,2.37c-.41-.55-.75-1.13-1-1.79-.1-.25-.5-.14-.4.11.45,1.16,1.11,2.14,2.01,3,.04.03.07.05.11.06-1.13.85-2.41,1.48-3.78,1.85,0-.02,0-.04,0-.06-.09-.59-.22-1.15-.41-1.7.35.45.71.9,1.06,1.36.14.18.39-.02.35-.2-.06-.26-.13-.51-.2-.77.14.23.29.45.43.68.1.16.41.11.39-.11-.04-.45-.1-.89-.2-1.31.17.21.35.41.55.61.14.14.41,0,.35-.2-.1-.32-.2-.64-.3-.96.12-.03.23-.16.16-.31-.26-.55-.52-1.09-.79-1.64-.1-.21-.45-.06-.38.16.2.63.4,1.27.61,1.9-.25-.32-.48-.66-.67-1.02-.11-.26-.24-.52-.38-.77-.01-.03-.03-.05-.05-.06,1.23-.98,2.19-2.32,2.7-3.74,1.03-2.89.1-6.25-2.33-8.14-2.1-1.64-5.05-1.72-7.27-.4-.06-.03-.13-.05-.2-.01-1.7.8-2.57,2.54-2.91,4.4-.52-1.32-1.04-2.64-1.56-3.96-.1-.25-.46-.16-.4.11.31,1.5.62,3.01.92,4.51-.46-1.15-.92-2.3-1.38-3.45-.1-.25-.46-.16-.4.11.12.56.25,1.11.39,1.66-1.87-3.94-3.42-8.01-4.65-12.18,1.65,3.52,3.3,7.05,4.94,10.57.12.24.47.03.36-.21-1.82-3.76-3.25-7.68-4.29-11.72,1.68,3.5,3.36,7,5.04,10.5.1.21.46.06.38-.16-.91-2.67-1.82-5.35-2.73-8.02,1.09,2.39,2.18,4.79,3.28,7.18.1.21.46.06.38-.16-1.03-2.83-2.06-5.67-3.09-8.5l4.35,8.74c.1.21.46.06.38-.16-.99-2.9-1.99-5.79-2.98-8.69,1.22,2.34,2.44,4.69,3.66,7.03.11.21.45.07.38-.16-.66-2.23-1.32-4.45-1.97-6.68,1.04,2.26,2.09,4.53,3.13,6.79.11.23.42.06.38-.16-.14-.79-.3-1.57-.49-2.34.31.74.62,1.47.93,2.21.1.24.49.15.4-.11-.9-2.81-1.79-5.61-2.69-8.42,1.41,2.87,2.83,5.75,4.24,8.62.1.21.46.06.38-.16-.6-1.8-1.19-3.6-1.79-5.4,1.16,2.4,2.5,4.72,4.03,6.92.12.18.47.07.38-.16-.86-2.21-1.71-4.41-2.57-6.62,1.56,3.05,3.12,6.1,4.67,9.15.11.21.46.06.38-.16-.9-2.46-1.8-4.91-2.7-7.37,1.36,2.91,2.73,5.82,4.09,8.72.12.24.47.03.36-.21-1.87-3.92-3.35-8-4.43-12.19,1.73,3.67,3.47,7.34,5.2,11.01.1.21.47.06.38-.16-1.34-3.2-2.49-6.47-3.44-9.81.82,1.82,1.64,3.64,2.46,5.46.1.22.44.06.38-.16-.48-1.71-.96-3.42-1.43-5.14l1.15,2.81c.08.2.43.2.41-.06-.04-.46-.09-.91-.15-1.36.11.04.24,0,.27-.13.09-.55.12-1.08.09-1.61.06.13.12.26.18.39.08.17.34.11.38-.05.1-.42.15-.83.16-1.23.14.16.3.3.49.44.16.12.33-.08.31-.24l-.22-1.29c.23.53.46,1.06.69,1.6.1.23.42.06.38-.16-.1-.51-.2-1.03-.29-1.54.27.48.57.94.93,1.39.11.14.37.03.36-.15l-.13-1.29c.23.4.52.76.88,1.1.12.12.29.05.35-.09.15-.36.21-.71.19-1.05.32.42.64.84.96,1.25.15.19.42.08.38-.16-.05-.34-.1-.68-.15-1.02.45.62.9,1.24,1.34,1.85.11.16.4.12.39-.11,0-.22-.01-.45-.02-.67.14.02.31-.14.23-.32-.1-.22-.19-.44-.29-.66-.09-.19-.39-.09-.39.11,0,.29.02.58.03.87-.48-.66-.96-1.33-1.45-1.99-.14-.2-.42-.08-.38.16.05.35.11.71.16,1.06l-1.29-1.69c-.16-.21-.52,0-.36.21.39.53.5,1.1.35,1.69-.57-.62-.92-1.31-1.09-2.17-.05-.23-.43-.18-.41.06.07.7.14,1.41.21,2.11-.51-.75-.9-1.56-1.16-2.45-.08-.26-.45-.15-.4.11.1.55.21,1.09.31,1.64l-.63-1.46c-.1-.23-.42-.05-.38.16.13.79.27,1.58.4,2.37-.16-.19-.28-.4-.37-.63-.04-.21-.09-.42-.15-.62-.07-.21-.44-.19-.41.06,0,.02,0,.04,0,.06,0,0,0,0,0,0,0,0,0,.01,0,.02.03.23.08.44.16.64.08.43.09.86.04,1.3-.32-.69-.64-1.39-.96-2.08-.12-.24-.47-.03-.36.21.45.9.67,1.85.65,2.83-.18-.55-.36-1.1-.54-1.64-.19-.67-.4-1.33-.65-1.98-.09-.25-.49-.15-.4.11.22.67.44,1.34.66,2.01.24.86.42,1.73.55,2.61-.64-1.57-1.29-3.14-1.93-4.71-.1-.24-.48-.16-.4.11l1.64,5.89-2.4-5.33c-.1-.22-.44-.06-.38.16.62,2.45,1.35,4.86,2.17,7.24l-3.74-7.92c-.1-.22-.43-.06-.38.16.53,2.34,1.19,4.65,1.96,6.92-.92-1.95-1.83-3.9-2.75-5.86-.1-.21-.46-.06-.38.16,1.05,2.87,2.1,5.74,3.16,8.61-1.65-3.24-3.31-6.48-4.96-9.71-.11-.21-.47-.06-.38.16,1.12,2.88,2.23,5.75,3.35,8.63-2.08-3.26-3.79-6.74-5.08-10.39-.09-.25-.49-.15-.4.11.86,2.6,1.73,5.21,2.59,7.81-1.35-2.75-2.71-5.5-4.06-8.25,1.27.09,2.54.15,3.82.17,0,0,0,0,0,0,.3,0,.61,0,.91,0,.3,0,.61,0,.91,0,0,0,0,0,0,0,1.68-.03,3.37-.11,5.05-.26,0,.02,0,.05,0,.07,4.07-.21,8.25.12,11.46,2.85,3.83,3.27,3.2,8.55,3.18,13.09Z"/><path class="cls-1" d="m29.77,39.65c-.46-.54-.83-1.11-1.13-1.73-.07-.2-.15-.41-.27-.61-.11-.2-.47-.06-.38.16,0,.02.01.03.02.05,0,0,0,0,0,0,0,.01.01.03.02.04.07.16.14.32.21.48.09.27.14.55.16.84-.41-.58-.81-1.16-1.22-1.74-.15-.22-.49-.03-.36.21.29.52.51,1.04.69,1.59-.29-.36-.56-.74-.82-1.12-.21-.51-.5-.98-.88-1.43-.16-.19-.44.05-.33.25.26.48.54.94.84,1.38.08.19.14.39.19.59-.86-1.17-1.6-2.42-2.22-3.75-.11-.24-.47-.03-.36.21.74,1.61,1.66,3.09,2.76,4.48.11.14.37.03.36-.15-.01-.15-.03-.3-.05-.44.26.33.52.65.8.97.15.17.39-.01.35-.2-.05-.25-.12-.49-.19-.73.14.21.29.42.43.62.13.18.36.1.39-.11.02-.15.02-.3.03-.45.2.3.41.6.66.88.18.2.47-.09.3-.29Z"/><path class="cls-1" d="m28.55,49.7c-.56-.88-.94-1.8-1.18-2.81-.05-.22-.43-.18-.41.06.05.53.1,1.07.15,1.6-.25-.59-.46-1.19-.62-1.82-.06-.22-.44-.18-.41.06.1.77.2,1.54.3,2.3-.4-.68-.69-1.42-.87-2.21-.06-.27-.44-.15-.4.11.12.88.24,1.77.36,2.65-.62-.75-1.07-1.6-1.35-2.56-.09-.25-.48-.15-.4.11.29.78.44,1.56.45,2.36-.33-.52-.62-1.06-.87-1.62-.11-.35-.25-.7-.42-1.05-.1-.21-.46-.06-.38.16.13.36.27.71.42,1.05.16.51.26,1.04.3,1.58-.59-.93-1.08-1.9-1.45-2.95-.09-.25-.46-.15-.4.11.18.85.36,1.7.53,2.56-.54-.83-.94-1.73-1.21-2.71-.07-.26-.47-.15-.4.11.38,1.36,1,2.56,1.87,3.67.14.18.39-.02.35-.2-.11-.52-.22-1.03-.32-1.55.32.62.68,1.21,1.08,1.79.12.17.38.11.39-.11,0-.32,0-.63-.03-.94.18.3.36.59.56.88.12.17.37.11.39-.11.03-.39.02-.76-.01-1.14.3.48.64.92,1.05,1.34.16.16.37-.01.35-.2-.06-.46-.12-.91-.19-1.37.21.41.45.81.74,1.19.11.14.42.13.39-.11l-.15-1.17c.15.35.31.7.49,1.04.09.18.41.1.39-.11-.03-.34-.06-.69-.09-1.03.19.42.4.84.66,1.24.14.23.5.02.36-.21Z"/></svg>