<?xml version="1.0" encoding="UTF-8"?><svg id="Layer_1" xmlns="http://www.w3.org/2000/svg" viewBox="0 0 60 60"><defs><style>.cls-1{fill:#fff;stroke-width:0px;}</style></defs><path class="cls-1" d="m19.92,22.8s-.09-.08-.17-.08c-2.81-.04-5.62-.08-8.43-.12-.18,0-.25.17-.2.3-.09.02-.17.09-.17.21-.07,10-.14,20-.21,29.99,0,.27.4.29.44.04.01,0,.02,0,.03,0,2.58.2,5.16.32,7.75.36.09,0,.14-.04.18-.09.13.04.3-.03.3-.2l.6-30.21c0-.1-.06-.17-.13-.2Zm-8.52.25c.97.01,1.95.03,2.92.04-.13.03-.24.19-.16.34.36.6.77,1.17,1.22,1.69.66,1.01,1.23,2.07,1.7,3.18-1.45-1.38-2.9-2.75-4.35-4.13-.18-.17-.5.05-.35.27l4.11,6.07c-1.16-.88-2.23-1.85-3.21-2.93-.28-.34-.58-.68-.88-1.01-.2-.21-.5.1-.32.32.27.33.56.65.85.97,1.31,1.58,2.37,3.33,3.16,5.23-1.21-1.36-2.27-2.83-3.19-4.41-.15-.25-.52-.03-.39.23,1.08,2.09,2.16,4.17,3.25,6.26-1.1-1.37-2.19-2.74-3.29-4.1-.18-.22-.5.09-.32.32,2.1,2.58,3.87,5.38,5.31,8.37-1.31-.88-2.44-1.96-3.38-3.2-.49-.78-.98-1.56-1.46-2.34-.15-.25-.52-.03-.39.23.42.84.92,1.63,1.48,2.37.61.98,1.23,1.96,1.84,2.94-1.03-1.23-2.06-2.46-3.09-3.69-.16-.2-.49.06-.35.27,1.64,2.6,3.29,5.2,4.93,7.8-1.16-.88-2.19-1.9-3.1-3.02-.68-1.05-1.36-2.1-2.04-3.15-.16-.24-.52-.03-.39.23.58,1.14,1.28,2.21,2.07,3.19.82,1.27,1.65,2.54,2.47,3.8l-4.52-4.98c-.06-.07-.14-.08-.21-.05.04-5.68.08-11.35.12-17.03,0-.02,0-.04-.01-.06Zm3.68,26.55c-.94-1.39-1.99-2.71-3.14-3.95-.17-.18-.49.06-.35.27.93,1.42,1.99,2.73,3.14,3.96.45.67.89,1.36,1.29,2.07-1.57-1.25-2.98-2.66-4.2-4.26-.17-.22-.56-.01-.39.23.7,1,1.4,2,2.09,3-.71-.63-1.43-1.26-2.14-1.89-.04-.04-.09-.05-.15-.05.01-1.85.03-3.7.04-5.55,1.49,2.29,2.97,4.59,4.46,6.88-.22-.22-.44-.46-.65-.69Zm-3.85-.04c.4.53.79,1.06,1.19,1.59-.33-.27-.67-.54-1-.82-.06-.05-.13-.06-.2-.05,0-.24,0-.49,0-.73Zm1.65,3c-.09-.25-.2-.49-.32-.72.32.26.65.53.97.79.18.15.52-.05.35-.27-.39-.53-.79-1.05-1.18-1.58.64.56,1.28,1.13,1.92,1.69.18.16.51-.05.35-.27-.35-.5-.69-.99-1.04-1.49.84.81,1.74,1.57,2.69,2.27,0,0,.02,0,.03.01-1.29-.04-2.59-.11-3.88-.19.08-.05.14-.14.1-.25Zm-1.35-9.58c-.07-.08-.17-.08-.25-.04l.02-2.27c1.61,2.45,3.22,4.89,4.84,7.34-1.53-1.68-3.07-3.35-4.6-5.03Zm-.32,9.72c0-.64,0-1.29.01-1.93.2.2.37.4.53.61-.15.03-.26.23-.13.38.29.34.59.67.88,1.01,0,0,.01,0,.01.01-.43-.03-.86-.06-1.3-.09,0,0-.01,0-.02,0Zm7.8.37s-.02,0-.03,0c-.72-.01-1.43-.03-2.15-.05.11-.05.18-.21.12-.33-.25-.47-.51-.92-.77-1.37.2.19.4.39.61.57.18.16.5-.05.35-.27l-4.1-6.32c1.56,1.71,3.12,3.41,4.69,5.12.17.19.49-.06.35-.27-1.64-2.49-3.29-4.99-4.93-7.48,1.48,1.63,2.96,3.26,4.44,4.89.17.19.49-.06.35-.27-.87-1.34-1.74-2.67-2.6-4.01.74.69,1.53,1.32,2.38,1.89.19.13.42-.12.31-.31-1.25-1.98-2.5-3.95-3.75-5.93,1,1.2,2.01,2.4,3.01,3.6.16.2.49-.06.35-.27-.74-1.18-1.48-2.36-2.22-3.55.75.69,1.57,1.32,2.47,1.85.21.12.4-.12.31-.31-.6-1.31-1.27-2.59-2-3.83l.64.8c.17.21.46-.06.35-.27-.84-1.63-1.69-3.25-2.53-4.88.6.76,1.22,1.5,1.9,2.2.15.16.45,0,.38-.22-.53-1.52-1.23-2.96-2.08-4.31.77.67,1.57,1.31,2.43,1.89.18.12.43-.12.31-.31-1.22-1.81-2.45-3.62-3.67-5.43,1.2,1.14,2.4,2.28,3.61,3.42.15.14.46,0,.38-.22-.35-.95-.77-1.86-1.25-2.74.47.4.96.77,1.49,1.1.2.12.41-.12.31-.31-.24-.45-.48-.89-.72-1.34.26.31.52.62.79.93.19.22.5-.1.32-.32-.72-.85-1.44-1.7-2.16-2.55-.17-.2-.47.06-.35.27.43.8.86,1.61,1.3,2.41-.7-.51-1.34-1.09-1.9-1.75-.36-.56-.75-1.1-1.17-1.63,0,0,0,0,0,0h0s-.02-.03-.04-.05c-.03-.03-.06-.05-.1-.06,1.73.02,3.46.05,5.18.07-.2,9.97-.4,19.93-.6,29.9Z"/><path class="cls-1" d="m54.23,41.74c-.04-3.47.11-7.02-.47-10.46-.89-5.25-4.63-10.67-10.61-9.79-3.36.49-6.04,2.7-8.24,5.16,0-1.26-.14-2.5-.44-3.73.15-.11.11-.41-.13-.41-2.92-.04-5.84-.09-8.76-.13-.17,0-.24.15-.21.28-.12-.02-.26.05-.25.21.37,9.96.33,19.92-.14,29.88,0,.12.07.19.16.21-.04.13.03.29.2.28,3.11-.23,6.22-.22,9.33.03.12,0,.19-.07.21-.16.03-.04.05-.08.04-.14-.38-3.74-.75-7.52-.42-11.27.17-1.96.54-3.9,1.2-5.75.66-1.84,1.63-3.95,3.58-4.7.64-.25,1.2-.33,1.69-.27.06.04.12.05.18.03,3.19.58,3.14,7.14,3.28,9.61.24,4.08.22,8.18-.02,12.26-.01.18.15.24.28.2.02,0,.05.02.08.02,3.11.09,6.22.17,9.32.26.16,0,.22-.12.21-.24.01-.03.02-.06.02-.1-.04-3.76-.08-7.51-.13-11.27Zm-28.08-1.13c2.27,3.11,4.54,6.22,6.81,9.32-2.54-2.21-4.79-4.7-6.74-7.46-.16-.23-.54-.02-.39.23,1.41,2.32,2.96,4.55,4.63,6.68-1.42-1.49-2.77-3.05-4.04-4.69-.16-.21-.47.06-.35.27.91,1.65,1.93,3.22,3.05,4.72-.89-.95-1.73-1.96-2.49-3.04-.17-.23-.55-.01-.39.23.94,1.35,1.88,2.7,2.82,4.06-.99-.92-1.85-1.97-2.56-3.14-.15-.25-.54-.02-.39.23.52.88,1.04,1.76,1.56,2.63-.45-.36-.9-.73-1.35-1.09-.19-.15-.49.04-.35.27.29.51.57,1.02.86,1.53-.26-.16-.53-.32-.79-.47-.21-.12-.4.11-.31.31.11.24.23.48.34.73-.19-.11-.38-.23-.57-.34,0,0-.02,0-.02,0,.2-4.64.31-9.28.33-13.92l5.27,7.84c-1.53-1.71-3.06-3.42-4.6-5.14-.17-.19-.5.06-.35.27Zm-.71,12.18s0-.02,0-.03c.01-.23.02-.46.03-.69.34.21.68.41,1.02.62.21.12.4-.12.31-.31-.11-.24-.23-.49-.34-.73.3.18.59.35.89.53.2.12.42-.11.31-.31l-.7-1.25,1.4,1.13c.19.15.49-.04.35-.27-.14-.23-.27-.46-.41-.68.55.55,1.14,1.07,1.78,1.54.18.13.43-.13.31-.31-.35-.5-.69-.99-1.04-1.49.67.68,1.35,1.33,2.08,1.95.22.18.51-.1.32-.32-1.34-1.49-2.56-3.08-3.66-4.75,1.61,1.88,3.33,3.65,5.16,5.32-2.6-.14-5.21-.14-7.82.05Zm9.03.02c-.21-.02-.43-.02-.64-.04,0-.05-.01-.11-.06-.17-1.71-1.9-3.31-3.9-4.79-5.98,1.56,1.74,3.26,3.35,5.1,4.82.08.06.18.06.27.02.04.45.09.89.13,1.34Zm2.62-20.46c-1.89,2.3-2.61,5.67-2.94,8.55-.39,3.36-.17,6.74.15,10.1-1.7-2.33-3.4-4.65-5.1-6.98,1.25,1.4,2.5,2.79,3.75,4.19.17.19.5-.06.35-.27-1.55-2.3-3.1-4.6-4.65-6.91,1.21,1.32,2.49,2.57,3.85,3.73.19.16.47-.04.35-.27-1.13-2.18-2.4-4.27-3.81-6.27.96.98,1.92,1.96,2.88,2.94.18.18.49-.05.35-.27-1.32-2.04-2.63-4.08-3.95-6.13l4.23,4.75c.17.19.49-.06.35-.27-1.22-1.98-2.44-3.95-3.66-5.93,1.41,1.72,2.92,3.36,4.53,4.91.18.17.5-.05.35-.27-1.69-2.61-3.38-5.23-5.08-7.84,1.52,1.76,3.14,3.44,4.85,5.02.18.17.49-.05.35-.27-1.25-1.99-2.51-3.98-3.76-5.96,1.52,1.86,3.13,3.65,4.83,5.36.18.18.5-.05.35-.27-1.13-1.71-2.25-3.41-3.38-5.12,1.19,1.34,2.46,2.61,3.82,3.8.19.17.47-.04.35-.27-.9-1.74-1.91-3.41-3.02-5.01.68.82,1.34,1.67,1.94,2.56.16.24.53.03.39-.23-.81-1.44-1.62-2.88-2.43-4.32.07-.06.1-.16.03-.26-.37-.56-.75-1.11-1.12-1.67-.16-.24-.53-.03-.39.23.63,1.12,1.26,2.25,1.9,3.37-.97-1.17-2.01-2.28-3.14-3.32-.21-.2-.51.1-.32.32,1.98,2.29,3.7,4.77,5.16,7.41-2.53-2.35-4.76-4.99-6.66-7.88-.16-.24-.55-.02-.39.23l5.51,8.34c-2.23-2.4-4.3-4.94-6.19-7.63-.16-.23-.54-.02-.39.23l5.56,8.81c-2.29-2.24-4.4-4.65-6.3-7.23-.17-.23-.55-.02-.39.23,2.12,3.28,4.25,6.56,6.37,9.84-2.18-2.26-4.17-4.68-5.94-7.28-.16-.24-.54-.02-.39.23,1.63,2.65,3.27,5.29,4.9,7.94-1.48-1.67-2.96-3.33-4.44-5-.17-.19-.49.06-.35.27,1.44,2.23,2.88,4.47,4.32,6.7-1.26-1.29-2.53-2.59-3.79-3.88-.21-.21-.5.1-.32.32,2.01,2.48,3.78,5.12,5.31,7.92-2.17-1.96-4.12-4.12-5.85-6.48-.05-.07-.13-.1-.2-.09.01-4.72-.07-9.44-.25-14.16,0-.02,0-.03-.01-.05,0,0,.01,0,.02,0,2.81.04,5.62.08,8.43.13.35,1.42.49,2.85.44,4.3,0,.26.35.28.43.07.02-.01.04-.02.06-.05.58-.67,1.21-1.33,1.88-1.95,0,0,0,.01,0,.02,0,.02.02.04.02.05,0,0,0,0,0,0,.6,1.42,1.2,2.84,1.81,4.25-.55-.58-1.03-1.21-1.47-1.87-.23-.47-.5-.92-.81-1.36-.16-.24-.52-.03-.39.23.24.48.52.93.81,1.37.28.57.5,1.17.67,1.8-.61-.58-1.12-1.24-1.55-1.99-.14-.25-.53-.03-.39.23.56,1,1.27,1.84,2.16,2.56.17.14.42.01.38-.22-.07-.35-.16-.69-.26-1.03.42.49.85.97,1.34,1.41.02.02.04.03.07.04-.8.29-1.56.82-2.14,1.52Zm2.41-1.6c.04-.06.05-.15.02-.23l-.78-1.84c.53.69,1.13,1.33,1.8,1.92-.35,0-.69.06-1.04.15Zm4.98,4.91c-.16-1.32-.43-2.68-1.28-3.74-.54-.68-1.2-1.07-1.9-1.23-.3-.65-.6-1.31-.89-1.96.94,1.26,2.03,2.4,3.25,3.42.16.13.45.01.38-.22-.3-.9-.65-1.76-1.04-2.61,1.36,1.82,2.72,3.64,4.08,5.46.17.23.54.03.39-.23l-4.04-6.94c1.38,1.89,2.76,3.78,4.14,5.67-.06.06-.08.15-.02.25,1.62,2.71,3.09,5.49,4.44,8.34-2.13-2.1-4.02-4.42-5.65-6.94-.16-.24-.54-.02-.39.23,2.16,3.43,4.16,6.96,6,10.57-2.16-2.47-4.18-5.05-6.05-7.75-.16-.24-.52-.03-.39.23,1.33,2.56,2.78,5.05,4.34,7.48-1.09-1.33-2.18-2.67-3.26-4-.16-.2-.49.06-.35.27l5.78,8.7c-2.34-2.09-4.36-4.49-6.02-7.18-.16-.24-.54-.02-.39.23,1.59,2.47,3.17,4.94,4.76,7.41-1.81-1.36-3.36-2.99-4.62-4.88-.16-.24-.55-.02-.39.23.84,1.29,1.68,2.58,2.52,3.87-.83-.85-1.66-1.69-2.49-2.54-.11-.11-.26-.07-.33.03.03-2.18,0-4.35-.12-6.53-.1-1.87-.23-3.75-.45-5.62Zm5.66-2.91c.7,1.82,1.4,3.64,2.1,5.46-.54-.51-1.07-1.03-1.57-1.57l-6.1-10.97c1.86,2.36,3.72,4.72,5.58,7.08Zm-5.14,17.26c.23.45.46.9.69,1.35-.12-.12-.24-.24-.36-.35-.14-.14-.33-.03-.37.11.02-.37.04-.74.05-1.11Zm.26-.46c-.08-.07-.17-.08-.24-.04.01-.48.02-.95.03-1.43.58.98,1.17,1.96,1.75,2.93l-1.53-1.46Zm-.37,3.11c.03-.48.04-.96.06-1.45,0,.04.02.08.06.11.44.43.89.87,1.33,1.3.19.18.47-.05.35-.27-.27-.53-.54-1.06-.8-1.59.59.57,1.19,1.13,1.78,1.7.18.17.49-.05.35-.27-.55-.92-1.09-1.84-1.64-2.75.92.94,1.83,1.87,2.75,2.81.18.18.49-.05.35-.27-.52-.8-1.03-1.59-1.55-2.39.95.95,2,1.81,3.14,2.57.19.12.43-.12.31-.31-.71-1.11-1.43-2.22-2.14-3.33,1.14,1.25,2.37,2.43,3.69,3.5.18.15.51-.04.35-.27-1.38-2.07-2.75-4.14-4.13-6.21,1.2,1.47,2.4,2.94,3.6,4.41.16.2.5-.06.35-.27-1.99-2.77-3.82-5.63-5.51-8.59,1.63,2.17,3.36,4.27,5.2,6.28.18.2.46-.05.35-.27-1.34-2.71-2.77-5.37-4.29-7.98,1.14,1.38,2.37,2.69,3.69,3.91.19.18.46-.05.35-.27-1.06-2.31-2.21-4.57-3.44-6.79.15.17.28.34.43.51.23.32.47.64.7.96.08.11.19.12.29.08.57.58,1.15,1.15,1.76,1.69.15.13.46,0,.38-.22-.49-1.28-.99-2.56-1.48-3.85l.93,1.62c.14.25.53.02.39-.23-.24-.41-.47-.82-.71-1.23l.46.58c.16.2.48-.06.35-.27-1.97-3.39-3.94-6.77-5.91-10.16,1.76,2.24,3.53,4.48,5.29,6.73.14.17.46-.02.38-.22-.53-1.28-1.11-2.53-1.73-3.77.5.75,1.01,1.51,1.51,2.26.16.24.55.01.39-.23-1.46-2.19-2.93-4.38-4.39-6.57-.16-.24-.54-.02-.39.23,1.3,2.13,2.46,4.34,3.48,6.61-2.06-2.62-4.12-5.24-6.18-7.86-.16-.2-.48.06-.35.27,1.97,3.39,3.95,6.79,5.92,10.18-.11-.14-.22-.28-.33-.42l-.16-.29c-.03-.06-.08-.09-.14-.1-2.39-3.03-4.78-6.07-7.17-9.1-.16-.21-.47.06-.35.27l6,10.78c-2.52-3.46-5.04-6.91-7.56-10.37-.17-.23-.54-.03-.39.23,1.42,2.45,2.85,4.9,4.27,7.35-1.31-1.75-2.62-3.51-3.94-5.26-.39-.57-.8-1.12-1.24-1.65-.16-.19-.51.07-.35.27.42.56.84,1.12,1.26,1.68,1.01,1.49,1.83,3.08,2.46,4.77-2.07-1.87-3.7-4.13-4.82-6.7-.12-.26-.5-.03-.39.23.78,1.72,1.57,3.44,2.35,5.16-1.39-1.32-2.47-2.89-3.2-4.69,0-.02-.02-.04-.03-.06-.03-.06-.07-.09-.13-.1,2.23-1.99,4.91-3.47,8-3.2,3.64.32,6.29,3.36,7.46,6.62,1.33,3.72,1.14,7.82,1.18,11.7.05,4.24.1,8.47.14,12.71-3-.08-6.01-.17-9.01-.25Z"/><path class="cls-1" d="m19.15,10.16c-2-2.28-5.5-2.25-7.7-.29-2.01,2.06-2.23,5.48-.15,7.59,2.07,2.11,5.43,2.2,7.57.15,2.1-2.01,2.18-5.28.28-7.45Zm-.6,7.13c-1.92,1.83-4.9,1.78-6.82-.04-.83-.79-1.28-1.8-1.41-2.85,1.07,1.21,2.22,2.34,3.47,3.37.15.13.47.01.38-.22-.14-.37-.31-.72-.48-1.07.56.61,1.12,1.22,1.69,1.83.17.19.48-.05.35-.27-.42-.7-.84-1.39-1.25-2.09.67.69,1.39,1.34,2.16,1.93.2.15.39-.13.31-.31-.48-1.04-1.02-2.04-1.61-3.02.78.8,1.59,1.58,2.43,2.33.15.13.46,0,.38-.22-.3-.77-.65-1.52-1.04-2.24.49.46.98.91,1.51,1.34.18.15.5-.04.35-.27-.76-1.18-1.51-2.36-2.27-3.54l2.23,2.45c.17.19.48-.05.35-.27-.59-.97-1.18-1.95-1.77-2.92.58.49,1.16.97,1.75,1.46.22.18.54-.13.32-.32l-2.79-2.34c-.19-.16-.49.04-.35.27.42.7.85,1.41,1.27,2.11l-2.47-2.72c-.17-.19-.49.06-.35.27.95,1.49,1.91,2.97,2.86,4.46-.62-.57-1.21-1.18-1.77-1.81-.49-.7-1.04-1.37-1.63-2-.17-.18-.51.06-.35.27.01.02.02.03.04.05h0s0,0,0,0c.5.68,1.04,1.33,1.6,1.96.66.93,1.23,1.92,1.7,2.97-1.66-1.54-3.21-3.2-4.63-4.98-.19-.22-.49.1-.32.32,1.48,1.75,2.73,3.65,3.75,5.7-1.31-1.11-2.44-2.4-3.38-3.83-.29-.48-.58-.96-.87-1.44-.15-.25-.52-.03-.39.23.27.49.56.97.86,1.43.62,1.03,1.24,2.06,1.86,3.1-.59-.64-1.19-1.29-1.78-1.93-.45-.58-.95-1.13-1.51-1.63-.21-.19-.51.1-.32.32.49.53.99,1.07,1.48,1.6.49.64.91,1.32,1.26,2.05-.85-.76-1.66-1.56-2.42-2.4.04-.09.02-.2-.08-.27-.14-.09-.28-.18-.42-.27-.04-.03-.09-.04-.13-.03,0-1.32.51-2.64,1.48-3.63,1.97-1.76,5.1-1.81,6.95.17,1.84,1.98,1.79,5.07-.17,6.94Z"/></svg>