<svg width="93" height="12" viewBox="0 0 93 12" fill="none" xmlns="http://www.w3.org/2000/svg">
<path d="M3 1.5C3 2.32843 2.32843 3 1.5 3C0.671573 3 0 2.32843 0 1.5C0 0.671573 0.671573 0 1.5 0C2.32843 0 3 0.671573 3 1.5Z" fill="#7759F3"/>
<path d="M12 1.5C12 2.32843 11.3284 3 10.5 3C9.67157 3 9 2.32843 9 1.5C9 0.671573 9.67157 0 10.5 0C11.3284 0 12 0.671573 12 1.5Z" fill="#7759F3"/>
<path d="M21 1.5C21 2.32843 20.3284 3 19.5 3C18.6716 3 18 2.32843 18 1.5C18 0.671573 18.6716 0 19.5 0C20.3284 0 21 0.671573 21 1.5Z" fill="#7759F3"/>
<path d="M30 1.5C30 2.32843 29.3284 3 28.5 3C27.6716 3 27 2.32843 27 1.5C27 0.671573 27.6716 0 28.5 0C29.3284 0 30 0.671573 30 1.5Z" fill="#7759F3"/>
<path d="M39 1.5C39 2.32843 38.3284 3 37.5 3C36.6716 3 36 2.32843 36 1.5C36 0.671573 36.6716 0 37.5 0C38.3284 0 39 0.671573 39 1.5Z" fill="#7759F3"/>
<path d="M48 1.5C48 2.32843 47.3284 3 46.5 3C45.6716 3 45 2.32843 45 1.5C45 0.671573 45.6716 0 46.5 0C47.3284 0 48 0.671573 48 1.5Z" fill="#7759F3"/>
<path d="M57 1.5C57 2.32843 56.3284 3 55.5 3C54.6716 3 54 2.32843 54 1.5C54 0.671573 54.6716 0 55.5 0C56.3284 0 57 0.671573 57 1.5Z" fill="#7759F3"/>
<path d="M66 1.5C66 2.32843 65.3284 3 64.5 3C63.6716 3 63 2.32843 63 1.5C63 0.671573 63.6716 0 64.5 0C65.3284 0 66 0.671573 66 1.5Z" fill="#7759F3"/>
<path d="M75 1.5C75 2.32843 74.3284 3 73.5 3C72.6716 3 72 2.32843 72 1.5C72 0.671573 72.6716 0 73.5 0C74.3284 0 75 0.671573 75 1.5Z" fill="#7759F3"/>
<path d="M84 1.5C84 2.32843 83.3284 3 82.5 3C81.6716 3 81 2.32843 81 1.5C81 0.671573 81.6716 0 82.5 0C83.3284 0 84 0.671573 84 1.5Z" fill="#7759F3"/>
<path d="M93 1.5C93 2.32843 92.3284 3 91.5 3C90.6716 3 90 2.32843 90 1.5C90 0.671573 90.6716 0 91.5 0C92.3284 0 93 0.671573 93 1.5Z" fill="#7759F3"/>
<path d="M3 10.5C3 11.3284 2.32843 12 1.5 12C0.671573 12 0 11.3284 0 10.5C0 9.67157 0.671573 9 1.5 9C2.32843 9 3 9.67157 3 10.5Z" fill="#7759F3"/>
<path d="M12 10.5C12 11.3284 11.3284 12 10.5 12C9.67157 12 9 11.3284 9 10.5C9 9.67157 9.67157 9 10.5 9C11.3284 9 12 9.67157 12 10.5Z" fill="#7759F3"/>
<path d="M21 10.5C21 11.3284 20.3284 12 19.5 12C18.6716 12 18 11.3284 18 10.5C18 9.67157 18.6716 9 19.5 9C20.3284 9 21 9.67157 21 10.5Z" fill="#7759F3"/>
<path d="M30 10.5C30 11.3284 29.3284 12 28.5 12C27.6716 12 27 11.3284 27 10.5C27 9.67157 27.6716 9 28.5 9C29.3284 9 30 9.67157 30 10.5Z" fill="#7759F3"/>
<path d="M39 10.5C39 11.3284 38.3284 12 37.5 12C36.6716 12 36 11.3284 36 10.5C36 9.67157 36.6716 9 37.5 9C38.3284 9 39 9.67157 39 10.5Z" fill="#7759F3"/>
<path d="M48 10.5C48 11.3284 47.3284 12 46.5 12C45.6716 12 45 11.3284 45 10.5C45 9.67157 45.6716 9 46.5 9C47.3284 9 48 9.67157 48 10.5Z" fill="#7759F3"/>
<path d="M57 10.5C57 11.3284 56.3284 12 55.5 12C54.6716 12 54 11.3284 54 10.5C54 9.67157 54.6716 9 55.5 9C56.3284 9 57 9.67157 57 10.5Z" fill="#7759F3"/>
<path d="M66 10.5C66 11.3284 65.3284 12 64.5 12C63.6716 12 63 11.3284 63 10.5C63 9.67157 63.6716 9 64.5 9C65.3284 9 66 9.67157 66 10.5Z" fill="#7759F3"/>
<path d="M75 10.5C75 11.3284 74.3284 12 73.5 12C72.6716 12 72 11.3284 72 10.5C72 9.67157 72.6716 9 73.5 9C74.3284 9 75 9.67157 75 10.5Z" fill="#7759F3"/>
<path d="M84 10.5C84 11.3284 83.3284 12 82.5 12C81.6716 12 81 11.3284 81 10.5C81 9.67157 81.6716 9 82.5 9C83.3284 9 84 9.67157 84 10.5Z" fill="#7759F3"/>
<path d="M93 10.5C93 11.3284 92.3284 12 91.5 12C90.6716 12 90 11.3284 90 10.5C90 9.67157 90.6716 9 91.5 9C92.3284 9 93 9.67157 93 10.5Z" fill="#7759F3"/>
</svg>
