<?xml version="1.0" encoding="UTF-8"?><svg id="Layer_1" xmlns="http://www.w3.org/2000/svg" viewBox="0 0 60 60"><defs><style>.cls-1{fill:#fff;stroke-width:0px;}</style></defs><path class="cls-1" d="m53.93,14.57c-1.21.07-2.42.13-3.63.2.83-1.43,1.45-2.94,1.87-4.55.05-.19-.16-.35-.33-.25-1.85.98-3.69,1.97-5.54,2.95,0,0-.01.01-.02.02-3.14-3.09-8.18-3.98-12.14-1.94-3.85,1.98-5.99,6.44-5.46,10.67-.04-.04-.08-.06-.14-.07-8.08-.76-15.47-5.59-19.44-12.66.03-.18-.15-.32-.29-.27-.14.01-.28.16-.19.33-2.28,5.44-1.19,11.9,2.74,16.28-1.49-.18-2.93-.55-4.33-1.11-.01,0-.02,0-.03,0-.13-.14-.43-.02-.38.22.92,4.37,3.75,8.13,7.67,10.23-1.31.48-2.67.47-3.98-.05-.25-.1-.37.27-.16.4,1.53,4,5.18,6.62,9.42,6.81-3.5,3.47-8.55,5.1-13.43,4.24-.23-.04-.35.23-.24.36,0,.04.02.07.06.11,5.98,5.73,15.61,5.75,23.05,3.31,7.93-2.59,14.5-8.41,17.77-16.12,1.8-4.24,2.55-8.86,2.15-13.45,2.03-1.48,3.78-3.26,5.23-5.32.1-.14-.03-.35-.19-.34ZM8.89,9.48c4.1,7.04,11.53,11.8,19.65,12.57.09,0,.15-.03.18-.09,0,.06.01.13.03.19.05.28.48.16.43-.12-.61-3.51.78-7.26,3.5-9.53,0,.02,0,.05,0,.08,2.48,7.18,4.96,14.37,7.44,21.55-2.74-5.49-5.47-10.99-8.21-16.48-.11-.22-.5-.07-.41.17,2.08,5.35,4.16,10.69,6.25,16.04-2.54-4.89-4.83-9.91-6.84-15.05-.1-.26-.52-.16-.43.12,1.26,4.22,2.7,8.38,4.3,12.47-1.65-3.44-3.31-6.88-4.96-10.32-.11-.23-.5-.07-.41.17,1.93,5.01,3.86,10.02,5.8,15.03-1.97-4.03-3.94-8.05-5.92-12.08-.11-.23-.51-.06-.41.17,2.04,5.08,4.09,10.17,6.13,15.25-1.93-3.64-3.61-7.4-5.02-11.26-.59-1.8-1.19-3.6-1.78-5.4-.09-.27-.52-.16-.43.12.54,1.83,1.14,3.64,1.79,5.43,1.48,4.48,2.95,8.95,4.43,13.43-3.3-5.97-5.86-12.3-7.62-18.9-.07-.28-.49-.16-.43.12,1.27,6,3.09,11.85,5.41,17.52-2.93-5.44-5.19-11.22-6.71-17.22-.07-.28-.5-.16-.43.12,1.67,7.18,3.77,14.24,6.29,21.16-3.45-6.91-6.2-14.14-8.2-21.6-.08-.28-.48-.16-.43.12,1.03,5.78,2.65,11.44,4.81,16.89-2.61-5.33-4.73-10.89-6.32-16.62-.01-.43-.03-.86-.04-1.3.23.63.46,1.26.69,1.9.1.27.53.15.43-.12-.39-1.07-.78-2.15-1.17-3.22-.08-.23-.45-.21-.44.06,0,.27.02.55.02.82-.09-.26-.48-.14-.43.14.04.21.08.42.12.62-.35-.88-.62-1.78-.81-2.72-.05-.25-.45-.19-.44.06.05,1.14.09,2.27.14,3.41-.07-.3-.15-.6-.22-.91-.03-.14-.19-.18-.31-.14-.37-.92-.6-1.88-.67-2.91-.02-.29-.46-.29-.45,0,.03.84.06,1.67.1,2.51-.54-1.19-.97-2.42-1.3-3.69-.06-.24-.45-.2-.44.06.06,1.09.12,2.17.17,3.26-.08.03-.15.1-.14.2.07.63.16,1.26.25,1.89,0,.16.02.31.02.47-.8-2.47-1.47-4.97-1.99-7.51-.06-.29-.47-.16-.43.12.39,2.75.77,5.49,1.16,8.24-1.13-3.16-2.01-6.41-2.62-9.72-.05-.25-.47-.19-.44.06.21,2.17.52,4.33.95,6.46-.97-3.19-1.83-6.42-2.56-9.68-.07-.29-.47-.16-.43.12.21,1.38.41,2.76.62,4.14-.41-1.66-.86-3.31-1.35-4.94,0-.02-.02-.03-.03-.05.15-.57.32-1.14.54-1.69Zm19.53,37.9c-.58-.82-1.05-1.69-1.4-2.65-.1-.27-.51-.17-.43.12.23.92.47,1.84.7,2.76-1.21-2-2.2-4.12-2.96-6.34-.09-.27-.51-.16-.43.12.59,2.23,1.17,4.47,1.76,6.7-1.6-2.18-2.89-4.54-3.87-7.05-.25-.7-.49-1.4-.74-2.1-.09-.27-.52-.16-.43.12.22.72.47,1.42.74,2.11.35.99.7,1.99,1.05,2.98-1.4-2.71-2.48-5.56-3.22-8.54-.07-.28-.49-.16-.43.12l.15.7c-1.14-3.55-2.03-7.17-2.65-10.84,1.39,4.91,3.26,9.68,5.58,14.24.11.22.49.07.41-.17-1.45-4.23-2.56-8.57-3.33-12.97,1.73,6.09,4.24,11.93,7.45,17.4.15.25.5.03.39-.23-2.27-5.1-4.09-10.37-5.46-15.77,1.89,5.73,4.31,11.26,7.24,16.54-.14-.06-.34.01-.33.2.08.85.16,1.71.23,2.56Zm-14.27-26.25c.42,1.51.89,3.01,1.42,4.5.04.11.15.16.25.15.56,3.27,1.33,6.5,2.3,9.68-1.15-1.78-2.17-3.64-3.08-5.54-.41-1.26-.87-2.51-1.36-3.74-.57-2.01-1.03-4.04-1.39-6.09.61,2.28,1.35,4.53,2.23,6.73.11.27.47.17.43-.12-.26-1.86-.52-3.71-.79-5.57Zm3.21.78c.15.43.33.84.54,1.24.6,4.6,1.58,9.13,2.91,13.57-2.12-4.63-3.79-9.45-4.98-14.41-.04-.79-.08-1.58-.13-2.37.35,1.03.77,2.03,1.26,3,.1.2.43.1.42-.11-.01-.31-.02-.61-.03-.92Zm1.49-.12c.29.88.65,1.73,1.09,2.55,1.15,5.42,2.75,10.73,4.79,15.88-2.61-5.06-4.62-10.41-6.01-15.94.12,0,.23-.07.22-.22-.03-.76-.06-1.52-.09-2.28Zm-.24,15.24c.1.15.33.12.4,0,.23,1.1.46,2.2.69,3.3-.7-1.23-1.28-2.52-1.73-3.87-.06-.24-.14-.48-.22-.72.28.43.56.87.86,1.29Zm-5.12,1.94c.11-.03.2-.15.17-.28-.08-.31-.17-.62-.25-.92.34.63.67,1.27,1.01,1.9-.32-.21-.63-.45-.92-.7Zm1.51,1.06s.04-.1.02-.16c-.11-.51-.22-1.02-.33-1.52.44.82.96,1.58,1.58,2.29-.44-.17-.86-.38-1.27-.61Zm.64-4.77c.15.6.34,1.18.55,1.75.25,1.05.36,2.13.33,3.23-1.08-1.27-1.86-2.71-2.35-4.32-.08-.28-.49-.16-.43.12l.51,2.35c-.46-.87-.92-1.74-1.39-2.61-.12-.23-.48-.07-.41.17.15.57.31,1.14.46,1.71-.36-.56-.66-1.15-.89-1.81-.09-.27-.53-.15-.43.12.32.9.76,1.71,1.32,2.46-.92-.91-1.68-2.01-2.21-3.26,1.31.38,2.67.31,3.95-.22.05-.02.08-.05.1-.09,0,0,.02,0,.02.01.26.13.49-.26.23-.39-3.96-1.93-6.84-5.53-7.87-9.8,1.44.55,2.91.91,4.45,1.07.07,0,.12-.01.15-.05,0,0,.01.01.02.02.2.21.52-.11.32-.32-3.36-3.45-4.79-8.43-3.97-13.1.35,2.18.7,4.36,1.05,6.54-.34-1.23-.59-2.48-.73-3.76-.03-.28-.48-.29-.45,0,.25,2.22.78,4.36,1.61,6.44.11.27.48.17.43-.12-.33-2.09-.67-4.18-1-6.27.69,2.66,1.29,5.35,1.77,8.06.05.29.47.16.43-.12l-.95-6.42c.57,2.18,1.2,4.35,1.88,6.5-.09.05-.15.14-.11.25.71,2.29,1.58,4.52,2.6,6.68.33,1.02.64,2.04.92,3.08-1.76-2.15-3.11-4.58-4.01-7.22-.09-.27-.52-.16-.43.12.56,1.75,1.12,3.5,1.68,5.25-1.04-1.63-1.89-3.37-2.53-5.22-.09-.27-.5-.16-.43.12.3,1.21.61,2.43.91,3.64-.82-1.51-1.65-3.02-2.47-4.54-.14-.25-.53-.03-.39.23,1.1,2.02,2.21,4.05,3.31,6.07.12.23.47.07.41-.17-.2-.81-.41-1.62-.61-2.44.65,1.34,1.41,2.62,2.3,3.83.14.19.49.09.41-.17l-.87-2.73c.85,1.53,1.86,2.97,3.04,4.29.15.17.43-.01.38-.22-.14-.53-.28-1.07-.43-1.6.46.84.94,1.68,1.44,2.5-.09.04-.16.13-.13.25.13.47.27.94.42,1.4.29,1.08.47,2.17.58,3.28-.6-.94-1.1-1.92-1.49-2.96-.14-.59-.32-1.17-.55-1.75-.1-.26-.51-.17-.43.12Zm1.29,5.61s.01-.04.01-.06c.05-.72.05-1.43-.02-2.13.38.74.81,1.44,1.3,2.12.12.16.43.13.42-.11-.03-.61-.1-1.21-.19-1.81.39.85.84,1.67,1.34,2.47-.99-.02-1.96-.19-2.86-.47Zm3.25.91c.13,0,.25-.1.23-.26.06-.1.02-.22-.06-.29l-.22-1.04c.85,2.24,1.89,4.39,3.14,6.45.05.08.13.11.22.1.13.49.23.99.29,1.5-.73-.89-1.35-1.84-1.87-2.85-.25-.61-.51-1.22-.81-1.81-.11-.23-.5-.07-.41.17.23.62.5,1.22.8,1.8.41.99.76,2,1.05,3.04-1.24-1.54-2.13-3.3-2.62-5.23-.07-.28-.49-.16-.43.12.34,1.56.68,3.11,1.02,4.67-.98-1.32-1.68-2.78-2.1-4.4-.04-.17-.22-.19-.33-.12.75-.55,1.45-1.17,2.1-1.85Zm-3.47,3.24c.36,1.3.71,2.61,1.07,3.91-.81-.89-1.37-1.93-1.67-3.1-.06-.27-.12-.54-.17-.82,0-.03-.02-.04-.03-.06.75-.38,1.47-.82,2.15-1.31-.06.05-.1.13-.08.23.32,1.54.64,3.08.96,4.62-.77-1.1-1.37-2.29-1.79-3.59-.09-.27-.51-.16-.43.12Zm-1.99,1.21s0,0,0-.01c0,0,0,0,0,0,0-.02-.01-.04-.02-.05-.11-.25-.45-.06-.41.17.09.58.28,1.11.54,1.59.08.34.14.68.18,1.03-.75-.69-1.33-1.5-1.71-2.46,0,0,0,0,0,0,0-.02-.01-.04-.02-.05-.1-.23-.51-.06-.41.17,0,.02.02.04.02.05h0c.33.74.52,1.48.59,2.26-.53-.59-.85-1.27-.99-2.1-.04-.25-.47-.19-.44.06.07.53.13,1.06.2,1.59-.32-.42-.54-.89-.67-1.44-.08-.28-.5-.16-.43.12.11.38.15.73.11,1.1-.37-.39-.6-.83-.71-1.4-.05-.26-.43-.18-.44.06-.02.38-.04.77-.06,1.15-.35-.47-.7-.94-1.05-1.41,2.27-.04,4.5-.56,6.53-1.52.04.28.1.55.17.82.22,1.02.43,2.04.65,3.06-.46-.37-.83-.81-1.1-1.31-.13-.5-.29-.99-.5-1.48Zm-6.16.45c-.03.06-.04.13.02.2.47.63.94,1.26,1.4,1.88-1.18-.59-2.29-1.33-3.3-2.22.63.08,1.26.13,1.88.13Zm10.3,4.17c-2.95-.08-5.93-.67-8.58-1.93.08-.02.15-.09.16-.21.01-.23.02-.46.04-.69.19.32.43.61.75.86.12.1.33.08.38-.1.03-.12.04-.23.06-.34.2.32.43.62.73.9.13.12.41.05.38-.16-.02-.17-.04-.34-.06-.51.23.36.52.69.86,1,.14.12.39.05.38-.16,0-.39-.05-.77-.11-1.14.36.48.79.91,1.29,1.3.14.11.4.06.38-.16-.02-.24-.05-.48-.08-.72.32.36.69.67,1.12.94.18.11.37-.07.33-.25-.1-.46-.2-.93-.3-1.39.4.64.89,1.24,1.48,1.76.16.14.44,0,.38-.22-.18-.64-.35-1.28-.53-1.92.38.66.81,1.28,1.29,1.88.15.19.42-.02.38-.22-.2-.95-.39-1.9-.59-2.84.48.95,1.08,1.85,1.79,2.67.16.18.42-.02.38-.22-.19-.87-.38-1.74-.57-2.61.6,1.19,1.36,2.29,2.29,3.29.16.17.43,0,.38-.22-.16-.63-.34-1.26-.54-1.87.37.53.77,1.04,1.2,1.53.13.14.39.03.38-.16-.05-1-.23-1.95-.54-2.88.68,1.12,1.42,2.2,2.23,3.23.15.18.43-.02.38-.22-.38-1.46-.77-2.92-1.15-4.39.7,1.51,1.51,2.97,2.44,4.36.14.21.48.08.41-.17-.17-.66-.34-1.33-.51-1.99.3.49.62.97,1,1.43.12.15.4.03.38-.16-.08-.89-.16-1.78-.24-2.68.18.24.31.51.42.84.09.28.52.16.43-.12-.05-.17-.11-.32-.18-.47.1-.06.16-.18.1-.31-2.55-5.35-4.54-10.93-5.96-16.67,2.17,6.73,4.94,13.26,8.31,19.49-4.05,1.82-8.51,2.74-12.95,2.62Zm29.79-30.99c-.1,0-.2.05-.21.17-.07.09-.05.21.01.29.68,8-2.25,16.13-7.88,21.86-2.4,2.44-5.25,4.41-8.35,5.86-2.07-5.34-3.88-10.77-5.43-16.28,1.66,4.4,3.73,8.64,6.18,12.67.15.25.51.03.39-.23-2.05-4.5-3.76-9.13-5.14-13.87,1.75,4.79,3.92,9.42,6.52,13.83.13.21.49.07.41-.17-1.03-3.14-2.07-6.27-3.1-9.41,1.3,2.89,2.74,5.71,4.34,8.45.12.21.51.07.41-.17-1.73-4.31-3.47-8.62-5.2-12.92,1.82,3.73,3.65,7.45,5.47,11.18.11.23.5.07.41-.17l-5.62-14.59c2.33,4.85,4.66,9.7,6.99,14.55.13.26.51.03.39-.23-2.54-5.44-4.77-11.03-6.69-16.72,1.98,4.59,4.18,9.09,6.59,13.47.12.22.5.07.41-.17l-5.83-14.97c2.52,5.05,5.03,10.1,7.55,15.15.11.23.49.07.41-.17-2.29-6.63-4.58-13.27-6.87-19.9l7.74,17.39c.1.23.49.07.41-.17-1.94-6.14-3.88-12.28-5.82-18.42,2.25,4.91,4.49,9.83,6.74,14.74.11.23.48.07.41-.17l-3.27-11.72c1.41,3.4,2.97,6.74,4.69,10,.12.22.49.07.41-.17-1.39-4.14-2.79-8.27-4.18-12.41,1.28,2.86,2.55,5.71,3.83,8.57.11.24.46.06.41-.17-.66-3.05-1.33-6.1-1.99-9.15.95,2.75,1.9,5.51,2.84,8.26.09.27.51.16.43-.12-.54-1.92-1.08-3.84-1.62-5.75.31.67.63,1.34.94,2,.11.24.46.06.41-.17-.2-1.04-.39-2.08-.59-3.11.24.51.47,1.02.71,1.53.11.25.45.06.41-.17,0-.03-.01-.06-.02-.09.13.13.41.08.39-.14-.06-.69-.12-1.38-.18-2.07.17.38.34.76.51,1.14.09.2.44.1.42-.11-.03-.29-.06-.58-.09-.87.05.13.09.25.14.38.1.27.48.17.43-.12l-.1-.65c.24.41.47.83.71,1.24.14.25.53.02.39-.23l-1.31-2.29c-.11-.19-.32-.12-.39.04-.02-.06-.04-.12-.06-.17-.08-.22-.47-.21-.44.06.04.42.09.83.13,1.25-.16-.35-.32-.71-.48-1.06-.09-.2-.44-.1-.42.11.04.44.08.89.11,1.33-.12-.37-.23-.75-.35-1.12-.09-.28-.48-.16-.43.12.1.55.2,1.1.29,1.65-.25-.54-.5-1.07-.74-1.61-.11-.24-.46-.06-.41.17.2,1.05.4,2.1.6,3.15l-1.34-2.86c-.11-.23-.48-.07-.41.17.08.29.16.58.24.87-.52-1.5-1.03-3-1.55-4.51-.09-.27-.5-.16-.43.12.78,3.59,1.56,7.18,2.34,10.77-1.62-3.62-3.24-7.25-4.86-10.87-.1-.23-.49-.07-.41.17,1.56,4.64,3.13,9.28,4.69,13.92-1.79-3.62-3.39-7.32-4.82-11.1-.1-.27-.51-.16-.43.12,1.21,4.35,2.42,8.7,3.64,13.05-2.36-5.15-4.71-10.31-7.07-15.46-.11-.23-.49-.07-.41.17,1.91,6.04,3.81,12.07,5.72,18.11-2.75-6.17-5.49-12.34-8.24-18.52-.03-.08-.1-.11-.17-.11.45-.35.93-.66,1.44-.92,3.82-1.96,8.7-1.06,11.69,1.96.11.11.24.07.32-.01.05.01.1,0,.15-.02,1.69-.9,3.37-1.8,5.06-2.7-.44,1.51-1.05,2.94-1.87,4.3-.12.19.09.37.26.32.01,0,.02,0,.03,0,1.16-.06,2.32-.13,3.47-.19-1.35,1.85-2.96,3.46-4.82,4.81Z"/></svg>